<svg width="52" height="52" viewBox="0 0 52 52" fill="none" xmlns="http://www.w3.org/2000/svg">
<circle cx="18.5" cy="17.5" r="11.5" fill="#FFC458"/>
<path d="M13.1413 36.8678C13.0437 36.2014 12.9941 35.5008 13.0006 34.7651C13.0633 27.681 18.1442 23.6002 21.1962 22.1687C21.5743 21.9914 21.832 21.6209 21.832 21.2033V11.7617C21.832 11.2738 21.4364 10.8783 20.9485 10.8783C20.4606 10.8783 20.0651 10.4828 20.0651 9.99487V7.0093C20.0651 6.45188 20.517 6 21.0744 6H31.1674C31.7249 6 32.1767 6.45188 32.1767 7.0093V9.99515C32.1767 10.4829 31.7813 10.8783 31.2936 10.8783C30.8059 10.8783 30.4105 11.2737 30.4105 11.7614V21.2765C30.4105 21.6568 30.6256 22.0035 30.9603 22.1841C36.0348 24.9218 38.3053 28.5439 39.1182 31.8213M13.1413 36.8678C14.0525 43.0891 19.1477 46.3268 21.832 47.2132C26.0372 48.5028 35.3392 48.5757 38.9054 38.55C39.4656 37.0063 39.7904 34.5317 39.1182 31.8213M13.1413 36.8678C15.2249 37.5126 21.1417 37.9949 28.1395 34.7651C35.1374 31.5353 38.3744 31.4568 39.1182 31.8213" stroke="white" stroke-width="2"/>
</svg>
