<svg width="53" height="52" viewBox="0 0 53 52" fill="none" xmlns="http://www.w3.org/2000/svg">
<circle cx="15.3047" cy="15" r="11" fill="#FFC458"/>
<circle cx="37.3047" cy="37" r="11" fill="#FFC458"/>
<path d="M11.9766 17.3298C11.9766 18.6198 12.9666 19.6598 14.1966 19.6598H16.7066C17.7766 19.6598 18.6466 18.7498 18.6466 17.6298C18.6466 16.4098 18.1166 15.9798 17.3266 15.6998L13.2966 14.2998C12.5066 14.0198 11.9766 13.5898 11.9766 12.3698C11.9766 11.2498 12.8466 10.3398 13.9166 10.3398H16.4266C17.6566 10.3398 18.6466 11.3798 18.6466 12.6698" stroke="white" stroke-width="1.5" stroke-linecap="round" stroke-linejoin="round"/>
<path d="M15.3047 9V21" stroke="white" stroke-width="1.5" stroke-linecap="round" stroke-linejoin="round"/>
<path d="M32.4477 40.886V39.698H41.8257V40.886H32.4477ZM34.8507 44V31.4H38.1177C39.3357 31.4 40.2717 31.694 40.9257 32.282C41.5857 32.87 41.9157 33.665 41.9157 34.667C41.9157 35.393 41.7717 36.008 41.4837 36.512C41.2017 37.016 40.7607 37.397 40.1607 37.655C39.5667 37.913 38.7987 38.042 37.8567 38.042H32.4477V36.863H37.8747C38.8047 36.863 39.4617 36.686 39.8457 36.332C40.2297 35.972 40.4217 35.45 40.4217 34.766C40.4217 34.154 40.2417 33.668 39.8817 33.308C39.5217 32.948 38.9487 32.768 38.1627 32.768H36.3897V44H34.8507Z" fill="white"/>
<path d="M26.7092 8.75642C32.3379 8.02131 43.8581 10.2417 44.9097 25.0043M44.9097 25.0043L41.7041 22.2252M44.9097 25.0043L47.6889 21.7988" stroke="white" stroke-width="1.5" stroke-linecap="round"/>
<path d="M25.3047 44.9755C19.638 45.3179 8.30469 42.2022 8.30469 27M8.30469 27L11.3047 30.0814M8.30469 27L5.30469 30.0814" stroke="white" stroke-width="1.5" stroke-linecap="round"/>
</svg>
