<svg width="53" height="52" viewBox="0 0 53 52" fill="none" xmlns="http://www.w3.org/2000/svg">
<path d="M37.3066 45.3332L47.7004 46.3891C48.6616 46.4868 49.4411 45.6231 49.2458 44.6769L46.9733 33.6665" stroke="white" stroke-width="1.66667" stroke-linejoin="round"/>
<path d="M3.66123 37.2857L12.8059 35.9435C13.0811 35.9032 14.0088 35.912 14.7343 35.9281C15.0373 35.9349 15.278 35.6747 15.255 35.3724C14.9986 32.011 15.4883 25.1651 19.3322 20.5794C23.086 16.1012 28.9469 14.6145 32.0155 14.3606C32.3648 14.3317 32.5923 13.9722 32.4262 13.6636C31.0828 11.1686 28.2118 8.75388 26.8419 7.79501C23.6831 5.85798 15.5774 3.50374 8.42527 9.58303C1.37729 15.5738 3.02218 23.735 4.78812 27.2224C4.8389 27.3227 4.85506 27.434 4.83417 27.5445L3.10135 36.7022C3.03792 37.0374 3.32369 37.3352 3.66123 37.2857Z" stroke="white" stroke-width="1.66667" stroke-linejoin="round"/>
<circle cx="34.0803" cy="31.2092" r="15.1088" fill="#FFC458"/>
<circle cx="27.2987" cy="30.9986" r="1.64893" stroke="white" stroke-width="1.66667"/>
<circle cx="33.7491" cy="30.9986" r="1.64893" stroke="white" stroke-width="1.66667"/>
<circle cx="40.7008" cy="30.9986" r="1.64893" stroke="white" stroke-width="1.66667"/>
</svg>
