<svg width="64" height="64" viewBox="0 0 64 64" fill="none" xmlns="http://www.w3.org/2000/svg">
<circle cx="30.0001" cy="20.9303" r="13.399" fill="#F6B745"/>
<path d="M32.4663 25.5602V19.9156M32.4663 19.9156V11.167L44.8348 15.4009L32.4663 19.9156Z" stroke="white" stroke-width="1.84615" stroke-linecap="round" stroke-linejoin="round"/>
<path d="M10.4424 57.4583C11.0766 53.2178 11.8795 51.479 13.9478 45.9352M54.4867 57.4583C52.46 49.8227 50.3674 45.4753 48.6801 41.1346M13.9478 45.9352C17.1197 37.4333 22.6335 26.9947 29.4135 25.9438C39.8038 24.3334 43.9572 28.9843 48.6801 41.1346M13.9478 45.9352C15.709 43.3419 20.7199 35.1484 24.5837 39.7323C29.4135 45.4622 31.4492 50.8966 39.865 49.8223C46.5976 48.9628 48.4013 43.6414 48.6801 41.1346" stroke="white" stroke-width="2" stroke-linecap="round" stroke-linejoin="round"/>
</svg>
