<svg width="64" height="64" viewBox="0 0 64 64" fill="none" xmlns="http://www.w3.org/2000/svg">
<circle cx="47.1795" cy="17.1795" r="15.1795" fill="#FFC458"/>
<path d="M22.6685 55.3333H41.3352C50.7152 55.3333 52.3952 51.5767 52.8852 47.0033L54.6352 28.3367C55.2652 22.6433 53.6319 18 43.6685 18H20.3352C10.3719 18 8.73854 22.6433 9.36854 28.3367L11.1185 47.0033C11.6085 51.5767 13.2885 55.3333 22.6685 55.3333Z" stroke="white" stroke-width="2" stroke-miterlimit="10" stroke-linecap="round" stroke-linejoin="round"/>
<path d="M22.6665 18.0003V16.1337C22.6665 12.0037 22.6665 8.66699 30.1332 8.66699H33.8665C41.3332 8.66699 41.3332 12.0037 41.3332 16.1337V18.0003" stroke="white" stroke-width="2" stroke-miterlimit="10" stroke-linecap="round" stroke-linejoin="round"/>
<path d="M36.6668 34.3333V36.6667C36.6668 36.69 36.6668 36.69 36.6668 36.7133C36.6668 39.2567 36.6435 41.3333 32.0002 41.3333C27.3802 41.3333 27.3335 39.28 27.3335 36.7367V34.3333C27.3335 32 27.3335 32 29.6668 32H34.3335C36.6668 32 36.6668 32 36.6668 34.3333Z" stroke="white" stroke-width="2" stroke-miterlimit="10" stroke-linecap="round" stroke-linejoin="round"/>
<path d="M54.5165 29.667C49.1265 33.587 42.9665 35.9203 36.6665 36.7137" stroke="white" stroke-width="2" stroke-miterlimit="10" stroke-linecap="round" stroke-linejoin="round"/>
<path d="M10.1157 30.2959C15.3657 33.8892 21.2924 36.0592 27.3357 36.7359" stroke="white" stroke-width="2" stroke-miterlimit="10" stroke-linecap="round" stroke-linejoin="round"/>
</svg>
