<svg width="60" height="61" viewBox="0 0 60 61" fill="none" xmlns="http://www.w3.org/2000/svg">
<path d="M32.8929 32.9515C30.5357 35.3836 30.3643 38.4157 30.1607 45.0586C36.3536 45.0586 40.6286 45.0372 42.8357 42.8943C44.9786 40.6872 45 36.2086 45 30.2193C38.3571 30.4336 35.325 30.5943 32.8929 32.9515ZM15 30.2193C15 36.2086 15.0214 40.6872 17.1643 42.8943C19.3714 45.0372 23.6464 45.0586 29.8393 45.0586C29.625 38.4157 29.4643 35.3836 27.1071 32.9515C24.675 30.5943 21.6429 30.4229 15 30.2193ZM29.8393 15.0586C23.6571 15.0586 19.3714 15.08 17.1643 17.2229C15.0214 19.43 15 23.9086 15 29.8979C21.6429 29.6836 24.675 29.5229 27.1071 27.1657C29.4643 24.7336 29.6357 21.7015 29.8393 15.0586ZM32.8929 27.1657C30.5357 24.7336 30.3643 21.7015 30.1607 15.0586C36.3536 15.0586 40.6286 15.08 42.8357 17.2229C44.9786 19.43 45 23.9086 45 29.8979C38.3571 29.6836 35.325 29.5229 32.8929 27.1657Z" fill="white"/>
</svg>
