<svg width="1906" height="187" viewBox="0 0 1906 187" fill="none" xmlns="http://www.w3.org/2000/svg">
  <g opacity="0.05">
    <path d="M0.808105 179.787V4.2793H62.2124C73.4072 4.2793 83.0565 6.36869 91.1601 10.5474C99.3474 14.7262 105.613 20.6182 109.957 28.2235C114.385 35.7452 116.599 44.5625 116.599 54.675C116.599 63.5341 114.511 71.3901 110.333 78.2432C106.24 85.0127 100.35 90.5287 92.6639 94.791C85.0615 98.9698 75.997 101.561 65.4706 102.564L124.118 179.787H105.571L47.6758 102.814H15.3446V179.787H0.808105ZM15.3446 89.2751H57.9517C71.9035 89.2751 82.7224 86.1829 90.4082 79.9982C98.1778 73.7301 102.063 65.2892 102.063 54.675C102.063 43.6431 98.7209 34.7423 92.0373 27.9728C85.354 21.2032 74.9945 17.8185 60.9592 17.8185H15.3446V89.2751Z" fill="white" />
    <path d="M196.698 179.787V4.2793H299.958V17.8185H211.235V79.9982H289.933V93.5374H211.235V166.248H300.71V179.787H196.698Z" fill="white" />
    <path d="M379.618 179.787V4.2793H432C447.79 4.2793 460.655 8.04018 470.597 15.5619C480.622 23.0001 485.635 33.9485 485.635 48.4069C485.635 54.1735 484.088 59.7732 480.998 65.2055C477.99 70.6379 474.189 75.3598 469.594 79.3714C464.998 83.383 460.404 86.0994 455.81 87.52C465.584 90.111 473.895 95.2925 480.747 103.065C487.68 110.754 491.148 120.616 491.148 132.651C491.148 141.51 488.893 149.491 484.381 156.595C479.953 163.699 473.604 169.34 465.334 173.519C457.063 177.698 447.288 179.787 436.01 179.787H379.618ZM394.155 166.248H432.501C447.454 166.248 458.524 163.406 465.71 157.723C472.978 152.04 476.612 143.265 476.612 131.397C476.612 119.697 472.853 110.837 465.334 104.82C457.898 98.8026 446.201 95.7939 430.245 95.7939H394.155V166.248ZM394.155 82.2548H428.992C437.429 82.2548 444.782 80.9176 451.048 78.2432C457.396 75.5689 462.326 71.7243 465.835 66.7098C469.344 61.6953 471.098 55.6779 471.098 48.6576C471.098 38.6286 467.422 30.9815 460.07 25.7162C452.717 20.451 442.276 17.8185 428.742 17.8185H394.155V82.2548Z" fill="white" />
    <path d="M567.679 179.787V4.2793H670.938V17.8185H582.215V79.9982H660.913V93.5374H582.215V166.248H671.69V179.787H567.679Z" fill="white" />
    <path d="M750.599 179.787V4.2793H765.135V166.248H847.592V179.787H750.599Z" fill="white" />
    <path d="M996.234 183.551C982.031 183.551 968.998 181.378 957.136 177.032C945.271 172.686 934.995 166.502 926.308 158.478C917.702 150.455 911.02 140.886 906.258 129.77C901.579 118.571 899.24 106.16 899.24 92.5376C899.24 78.8314 901.496 66.3786 906.007 55.1795C910.601 43.8969 917.035 34.2023 925.306 26.0954C933.659 17.9051 943.559 11.5952 955.005 7.1657C966.449 2.73623 979.106 0.521484 992.976 0.521484C999.407 0.521484 1005.76 1.06472 1012.02 2.15119C1018.29 3.23768 1024.22 4.86739 1029.82 7.04035C1035.5 9.21329 1040.6 12.013 1045.11 15.4396L1038.09 27.349C1031.32 23.0867 1023.89 19.9109 1015.78 17.8215C1007.76 15.6486 999.743 14.5621 991.723 14.5621C980.109 14.5621 969.542 16.359 960.018 19.9527C950.494 23.5465 942.306 28.728 935.456 35.4976C928.689 42.2672 923.466 50.4157 919.792 59.9433C916.115 69.4708 914.278 80.1685 914.278 92.0361C914.278 108.333 917.661 122.332 924.428 134.033C931.278 145.65 940.845 154.55 953.126 160.735C965.489 166.919 979.943 170.012 996.485 170.012C1005.76 170.012 1013.86 169.092 1020.8 167.254C1027.73 165.415 1032.99 163.326 1036.59 160.986V107.33H992.976V93.7912H1050.62V168.257C1046.69 171.433 1041.43 174.191 1034.83 176.531C1028.31 178.787 1021.55 180.501 1014.53 181.67C1007.51 182.924 1001.41 183.551 996.234 183.551Z" fill="white" />
    <path d="M1133.33 179.787V4.2793H1194.73C1205.93 4.2793 1215.58 6.36869 1223.68 10.5474C1231.87 14.7262 1238.13 20.6182 1242.48 28.2235C1246.91 35.7452 1249.12 44.5625 1249.12 54.675C1249.12 63.5341 1247.03 71.3901 1242.86 78.2432C1238.76 85.0127 1232.87 90.5287 1225.19 94.791C1217.58 98.9698 1208.52 101.561 1197.99 102.564L1256.64 179.787H1238.09L1180.2 102.814H1147.87V179.787H1133.33ZM1147.87 89.2751H1190.47C1204.42 89.2751 1215.24 86.1829 1222.93 79.9982C1230.7 73.7301 1234.58 65.2892 1234.58 54.675C1234.58 43.6431 1231.24 34.7423 1224.56 27.9728C1217.88 21.2032 1207.52 17.8185 1193.48 17.8185H1147.87V89.2751Z" fill="white" />
    <path d="M1406.73 183.551C1393.86 183.551 1381.87 181.253 1370.76 176.656C1359.73 171.976 1350.08 165.499 1341.81 157.225C1333.63 148.951 1327.24 139.256 1322.64 128.141C1318.05 117.025 1315.75 104.99 1315.75 92.0361C1315.75 78.9984 1318.05 66.9219 1322.64 55.8063C1327.24 44.6909 1333.63 34.9961 1341.81 26.7222C1350.08 18.4483 1359.73 12.0131 1370.76 7.41642C1381.87 2.8198 1393.86 0.521484 1406.73 0.521484C1419.51 0.521484 1431.41 2.86159 1442.44 7.54178C1453.47 12.222 1463.12 18.7409 1471.39 27.0983C1479.66 35.4559 1486.09 45.1924 1490.69 56.3078C1495.37 67.3397 1497.7 79.2491 1497.7 92.0361C1497.7 104.99 1495.37 117.025 1490.69 128.141C1486.09 139.256 1479.66 148.951 1471.39 157.225C1463.12 165.499 1453.47 171.976 1442.44 176.656C1431.41 181.253 1419.51 183.551 1406.73 183.551ZM1406.73 169.51C1417.25 169.51 1427.11 167.672 1436.3 163.994C1445.49 160.317 1453.55 155.094 1460.49 148.324C1467.42 141.471 1472.85 133.28 1476.78 123.753C1480.7 114.225 1482.67 103.653 1482.67 92.0361C1482.67 76.4912 1479.24 62.9103 1472.39 51.2933C1465.62 39.6764 1456.48 30.6503 1444.95 24.2149C1433.5 17.7797 1420.76 14.5621 1406.73 14.5621C1396.2 14.5621 1386.34 16.4008 1377.15 20.078C1367.96 23.7553 1359.9 29.0206 1352.97 35.8737C1346.03 42.6432 1340.6 50.7918 1336.67 60.3194C1332.75 69.7634 1330.78 80.3357 1330.78 92.0361C1330.78 107.581 1334.17 121.162 1340.94 132.779C1347.79 144.396 1356.94 153.422 1368.38 159.857C1379.91 166.293 1392.69 169.51 1406.73 169.51Z" fill="white" />
    <path d="M1637.28 183.548C1622.41 183.548 1610.04 180.456 1600.18 174.271C1590.32 168.003 1582.93 159.687 1578 149.324C1573.07 138.961 1570.61 127.553 1570.61 115.1V4.2793H1585.15V113.094C1585.15 131.982 1589.87 146.106 1599.31 155.467C1608.83 164.827 1621.49 169.507 1637.28 169.507C1653.07 169.507 1665.68 164.827 1675.12 155.467C1684.65 146.106 1689.41 131.982 1689.41 113.094V4.2793H1703.95V115.1C1703.95 127.553 1701.48 138.961 1696.55 149.324C1691.62 159.687 1684.23 168.003 1674.37 174.271C1664.51 180.456 1652.15 183.548 1637.28 183.548Z" fill="white" />
    <path d="M1787.83 179.787V4.2793H1844.47C1856.33 4.2793 1866.74 6.2851 1875.67 10.2967C1884.7 14.3083 1891.72 20.0749 1896.73 27.5967C1901.82 35.0349 1904.37 43.9775 1904.37 54.4243C1904.37 65.2055 1902.03 74.2734 1897.35 81.628C1892.68 88.9827 1885.87 94.5822 1876.93 98.4265C1867.99 102.187 1857.09 104.068 1844.22 104.068H1802.37V179.787H1787.83ZM1802.37 90.5287H1845.98C1859.93 90.5287 1870.7 87.52 1878.31 81.5026C1885.99 75.4017 1889.84 66.5428 1889.84 54.9257C1889.84 43.6431 1885.95 34.6588 1878.18 27.9728C1870.41 21.2032 1859.76 17.8185 1846.23 17.8185H1802.37V90.5287Z" fill="white" />
  </g>
</svg>