<svg width="78" height="79" viewBox="0 0 78 79" fill="none" xmlns="http://www.w3.org/2000/svg">
<circle cx="38.6651" cy="40.1808" r="25.0187" fill="#FFC458"/>
<path d="M9.48069 69.6204C9.37077 65.2966 12.0993 55.6797 23.2395 48.8339M64.0284 9.22852C59.5233 31.0232 45.1557 38.2069 27.1356 46.7299C25.7348 47.3924 24.4384 48.0971 23.2395 48.8339M64.0284 9.22852C66.3824 15.8846 70.2624 32.0703 66.9506 43.5642C63.6388 55.0582 52.7455 60.1233 47.7128 61.2191C40.8944 62.6217 26.4539 62.1084 23.2395 48.8339M64.0284 9.22852C61.7961 12.313 55.4079 18.75 47.7128 19.8214C40.0177 20.8929 35.6588 22.2972 34.4412 22.8654C20.5121 29.002 21.1696 42.7346 23.2395 48.8339" stroke="white" stroke-width="3.03256" stroke-linecap="round" stroke-linejoin="round"/>
</svg>
