<svg width="281" height="29" viewBox="0 0 281 29" fill="none" xmlns="http://www.w3.org/2000/svg">
  <g clip-path="url(#clip0_5001_3)">
    <path d="M0.119141 26.994V1.12891H9.17192C10.8224 1.12891 12.2449 1.43683 13.4397 2.05266C14.6467 2.6685 15.5705 3.53682 16.2109 4.65763C16.8637 5.76614 17.1901 7.06556 17.1901 8.55588C17.1901 9.86147 16.8822 11.0192 16.2663 12.0292C15.6628 13.0268 14.7945 13.8397 13.6614 14.4679C12.5406 15.0837 11.2042 15.4656 9.65227 15.6134L18.2986 26.994H15.5643L7.02881 15.6503H2.26225V26.994H0.119141ZM2.26225 13.655H8.54377C10.6007 13.655 12.1957 13.1993 13.3288 12.2878C14.4743 11.3641 15.047 10.1201 15.047 8.55588C15.047 6.93007 14.5543 5.61834 13.569 4.62068C12.5837 3.62303 11.0564 3.12421 8.98717 3.12421H2.26225V13.655Z" fill="white" />
    <path d="M28.999 26.994V1.12891H44.2225V3.12421H31.1421V12.2878H42.7445V14.2832H31.1421V24.9987H44.3333V26.994H28.999Z" fill="white" />
    <path d="M55.9668 26.994V1.12891H63.6894C66.0172 1.12891 67.9139 1.68316 69.3797 2.79166C70.8577 3.88785 71.5967 5.50135 71.5967 7.63212C71.5967 8.48198 71.3688 9.30722 70.9131 10.1078C70.4697 10.9084 69.9092 11.6043 69.2319 12.1955C68.5543 12.7867 67.877 13.187 67.1996 13.3963C68.6407 13.7782 69.866 14.5418 70.8762 15.6873C71.8983 16.8204 72.4096 18.2738 72.4096 20.0474C72.4096 21.353 72.0771 22.5292 71.412 23.5761C70.7591 24.6231 69.8231 25.4544 68.6038 26.0703C67.3844 26.6861 65.9433 26.994 64.2806 26.994H55.9668ZM58.1099 24.9987H63.7633C65.9678 24.9987 67.5998 24.5799 68.6592 23.7424C69.7307 22.9049 70.2665 21.6116 70.2665 19.8626C70.2665 18.1383 69.7123 16.8327 68.6038 15.9459C67.5075 15.0591 65.783 14.6157 63.4307 14.6157H58.1099V24.9987ZM58.1099 12.6204H63.246C64.4898 12.6204 65.5738 12.4233 66.4976 12.0292C67.4336 11.6351 68.1604 11.0685 68.6777 10.3295C69.195 9.59048 69.4536 8.70368 69.4536 7.66907C69.4536 6.19107 68.9116 5.06409 67.8278 4.28813C66.7437 3.51218 65.2043 3.12421 63.209 3.12421H58.1099V12.6204Z" fill="white" />
    <path d="M83.6924 26.994V1.12891H98.9159V3.12421H85.8355V12.2878H97.4378V14.2832H85.8355V24.9987H99.0267V26.994H83.6924Z" fill="white" />
    <path d="M110.66 26.994V1.12891H112.803V24.9987H124.96V26.994H110.66Z" fill="white" />
    <path d="M146.874 27.5517C144.78 27.5517 142.859 27.2315 141.11 26.591C139.361 25.9506 137.846 25.0391 136.565 23.8567C135.296 22.6743 134.311 21.2641 133.609 19.6259C132.919 17.9755 132.574 16.1465 132.574 14.1388C132.574 12.1189 132.907 10.2837 133.572 8.63325C134.249 6.97049 135.198 5.54177 136.417 4.34703C137.649 3.14 139.108 2.21009 140.796 1.5573C142.483 0.904519 144.349 0.578125 146.394 0.578125C147.342 0.578125 148.278 0.658184 149.202 0.8183C150.126 0.978419 151 1.2186 151.825 1.53883C152.663 1.85906 153.414 2.27167 154.079 2.77666L153.045 4.53178C152.047 3.90363 150.951 3.4356 149.756 3.12768C148.574 2.80745 147.391 2.64733 146.209 2.64733C144.497 2.64733 142.939 2.91214 141.535 3.44176C140.131 3.97139 138.923 4.735 137.914 5.73266C136.916 6.73031 136.146 7.93119 135.604 9.3353C135.062 10.7394 134.791 12.316 134.791 14.0649C134.791 16.4667 135.29 18.5298 136.288 20.2541C137.298 21.9661 138.708 23.2778 140.518 24.1893C142.341 25.1007 144.472 25.5564 146.911 25.5564C148.278 25.5564 149.473 25.421 150.495 25.15C151.517 24.879 152.293 24.5711 152.823 24.2262V16.3189H146.394V14.3236H154.892V25.2978C154.313 25.7658 153.537 26.1723 152.564 26.5171C151.604 26.8497 150.606 27.1022 149.571 27.2746C148.537 27.4594 147.637 27.5517 146.874 27.5517Z" fill="white" />
    <path d="M167.086 26.994V1.12891H176.139C177.789 1.12891 179.212 1.43683 180.406 2.05266C181.613 2.6685 182.537 3.53682 183.178 4.65763C183.83 5.76614 184.157 7.06556 184.157 8.55588C184.157 9.86147 183.849 11.0192 183.233 12.0292C182.629 13.0268 181.761 13.8397 180.628 14.4679C179.507 15.0837 178.171 15.4656 176.619 15.6134L185.265 26.994H182.531L173.996 15.6503H169.229V26.994H167.086ZM169.229 13.655H175.511C177.567 13.655 179.162 13.1993 180.296 12.2878C181.441 11.3641 182.014 10.1201 182.014 8.55588C182.014 6.93007 181.521 5.61834 180.536 4.62068C179.55 3.62303 178.023 3.12421 175.954 3.12421H169.229V13.655Z" fill="white" />
    <path d="M207.392 27.5517C205.496 27.5517 203.728 27.213 202.09 26.5356C200.464 25.8459 199.042 24.8913 197.822 23.672C196.615 22.4526 195.673 21.0239 194.996 19.3857C194.318 17.7476 193.979 15.974 193.979 14.0649C193.979 12.1435 194.318 10.3638 194.996 8.72562C195.673 7.08751 196.615 5.65876 197.822 4.4394C199.042 3.22006 200.464 2.27167 202.09 1.59425C203.728 0.916835 205.496 0.578125 207.392 0.578125C209.277 0.578125 211.032 0.922994 212.658 1.61273C214.284 2.30247 215.706 3.26317 216.926 4.49483C218.145 5.72652 219.093 7.16141 219.771 8.79952C220.461 10.4253 220.805 12.1805 220.805 14.0649C220.805 15.974 220.461 17.7476 219.771 19.3857C219.093 21.0239 218.145 22.4526 216.926 23.672C215.706 24.8913 214.284 25.8459 212.658 26.5356C211.032 27.213 209.277 27.5517 207.392 27.5517ZM207.392 25.4825C208.944 25.4825 210.398 25.2116 211.753 24.6696C213.107 24.1277 214.296 23.3579 215.318 22.3602C216.341 21.3503 217.141 20.1432 217.72 18.7391C218.299 17.335 218.588 15.777 218.588 14.0649C218.588 11.774 218.084 9.77256 217.073 8.06052C216.076 6.34851 214.727 5.0183 213.027 4.0699C211.34 3.12153 209.462 2.64733 207.392 2.64733C205.841 2.64733 204.387 2.9183 203.032 3.46022C201.678 4.00217 200.489 4.77812 199.467 5.78808C198.445 6.78574 197.644 7.98662 197.065 9.39073C196.486 10.7825 196.197 12.3406 196.197 14.0649C196.197 16.3558 196.695 18.3573 197.693 20.0693C198.703 21.7814 200.052 23.1116 201.739 24.0599C203.439 25.0083 205.323 25.4825 207.392 25.4825Z" fill="white" />
    <path d="M241.382 27.5483C239.19 27.5483 237.367 27.0926 235.914 26.1811C234.46 25.2574 233.37 24.0319 232.644 22.5046C231.917 20.9773 231.554 19.2961 231.554 17.4609V1.12891H233.697V17.1653C233.697 19.9489 234.393 22.0304 235.785 23.4098C237.189 24.7893 239.055 25.4791 241.382 25.4791C243.71 25.4791 245.57 24.7893 246.962 23.4098C248.366 22.0304 249.068 19.9489 249.068 17.1653V1.12891H251.211V17.4609C251.211 19.2961 250.848 20.9773 250.121 22.5046C249.394 24.0319 248.304 25.2574 246.851 26.1811C245.398 27.0926 243.575 27.5483 241.382 27.5483Z" fill="white" />
    <path d="M263.578 26.994V1.12891H271.929C273.678 1.12891 275.211 1.42451 276.529 2.01571C277.859 2.60691 278.894 3.45675 279.633 4.56526C280.384 5.66146 280.76 6.97936 280.76 8.51893C280.76 10.1078 280.415 11.4442 279.725 12.528C279.036 13.6119 278.032 14.4371 276.714 15.0037C275.396 15.5579 273.789 15.8351 271.892 15.8351H265.721V26.994H263.578ZM265.721 13.8397H272.151C274.208 13.8397 275.796 13.3963 276.917 12.5095C278.05 11.6104 278.617 10.3049 278.617 8.59283C278.617 6.93007 278.044 5.60603 276.899 4.62068C275.753 3.62303 274.183 3.12421 272.188 3.12421H265.721V13.8397Z" fill="white" />
  </g>
  <defs>
    <clipPath id="clip0_5001_3">
      <rect width="281" height="27.1166" fill="white" transform="translate(0 0.941406)" />
    </clipPath>
  </defs>
</svg>