<svg width="78" height="78" viewBox="0 0 78 78" fill="none" xmlns="http://www.w3.org/2000/svg">
  <path d="M38.9126 10H38.9419C48.5928 10.0001 59.4588 15.5705 62.5464 27.8467L62.687 28.4365C65.9187 42.6907 57.2072 54.8489 49.0601 62.6826L49.0562 62.6855C47.5674 64.1317 45.9145 65.5951 44.1792 66.6934C42.438 67.7953 40.6933 68.4795 39.0083 68.4795C37.3202 68.4795 35.54 67.7931 33.7593 66.6885C31.9867 65.5889 30.2931 64.1247 28.7944 62.6826C20.775 54.9716 12.2073 43.0416 15.0249 29.0732L15.1675 28.4072C18.0506 15.7222 29.1346 10.0001 38.9126 10Z" stroke="#FFC458" stroke-width="2" />
  <path d="M37.675 33.9543C34.8713 34.2251 32.3322 34.4778 32.0324 34.5139L31.5034 34.568L31.9266 34.8207C32.1558 34.9471 32.8259 35.0915 33.4254 35.1456L34.5011 35.2359L37.146 37.9253C40.2318 41.0299 40.7784 41.3548 42.965 41.4631C44.3403 41.5353 44.358 41.5353 44.0229 41.2104C43.8113 41.0299 42.1362 39.604 40.2671 38.0336C38.398 36.4633 36.9168 35.0915 36.9873 35.0012C37.1637 34.7124 38.1158 34.8388 38.6448 35.2178C39.1386 35.5969 39.2091 35.5969 41.0606 35.3983C42.3478 35.2359 43.0708 35.0734 43.3 34.8749C43.5998 34.5861 44.1111 33.7197 44.1111 33.485C44.1111 33.3406 43.0884 33.4128 37.675 33.9543ZM35.2945 34.7485C35.2945 34.8929 35.1711 35.0193 35.03 35.0193C34.889 35.0193 34.7655 34.8929 34.7655 34.7485C34.7655 34.6041 34.889 34.4778 35.03 34.4778C35.1711 34.4778 35.2945 34.6041 35.2945 34.7485Z" fill="#FFC458" />
  <path d="M32.6572 28.802V32.2656L33.2253 32.1596C33.5369 32.1066 34.0867 32.0536 34.4165 32.0536H35.0213L35.0763 29.88L35.1312 27.724L37.9351 27.671C40.4091 27.6357 40.8306 27.671 41.5637 27.9714C42.2234 28.2542 42.4616 28.4839 42.7365 29.1024C43.1031 29.88 43.0298 30.6929 42.5716 31.2407C42.4433 31.3997 42.7182 31.4174 43.7628 31.329C44.5142 31.276 45.1739 31.17 45.2472 31.117C45.3022 31.0463 45.3572 30.5338 45.3572 29.9683C45.3572 28.643 44.8257 27.5297 43.7445 26.6107C42.4067 25.4798 41.6553 25.3384 36.8539 25.3384H32.6572V28.802Z" fill="#FFC458" />
  <path d="M36.5548 18.6536C27.1147 20.3723 21.8125 30.7204 26.0578 39.1707C28.0283 43.1094 30.9122 45.4906 35.2292 46.7796C37.325 47.4062 40.3702 47.442 42.5376 46.8691C44.4006 46.3857 46.9263 45.1325 48.2518 44.0225C50.4909 42.1606 52.2822 39.3497 53.0345 36.4673C53.5361 34.5696 53.5719 31.4544 53.142 29.6283C51.7448 23.8993 47.2308 19.6562 41.445 18.6536C39.5999 18.3313 38.346 18.3313 36.5548 18.6536ZM41.9823 21.2496C45.4037 22.1268 48.2339 24.4184 49.8102 27.6052C50.7596 29.5388 51.1 31.2396 50.9925 33.5133C50.8134 36.718 49.8102 38.9559 47.4637 41.3191C46.2098 42.5902 45.6545 43.002 44.4185 43.5928C40.818 45.3115 37.2713 45.3115 33.6708 43.5928C32.4348 43.002 31.8795 42.5723 30.6077 41.3191C29.3538 40.0659 28.9239 39.4751 28.3328 38.2576C27.4013 36.3599 27.0431 34.8381 27.0431 32.8688C27.0251 25.0988 34.459 19.316 41.9823 21.2496Z" fill="#FFC458" />
</svg>