<svg width="78" height="78" viewBox="0 0 78 78" fill="none" xmlns="http://www.w3.org/2000/svg">
  <circle cx="39.5" cy="38.5" r="19.5" fill="#FFC458" />
  <path d="M21.2727 70C21.0654 70 20.8556 69.9466 20.6683 69.8399C20.2713 69.6162 20.024 69.1918 20.024 68.7292V59.9858C13.6686 54.4297 10.0352 46.5353 10.0352 38.2292C10.0352 22.1125 23.4777 9 40.0018 9C56.5259 9 69.9685 22.1125 69.9685 38.2292C69.9685 54.3459 56.5259 67.4583 40.0018 67.4583C36.1636 67.4583 32.4302 66.7594 28.8942 65.3818L21.9344 69.8068C21.7321 69.9365 21.5024 70 21.2727 70ZM40.0018 11.5417C24.8562 11.5417 12.5324 23.5129 12.5324 38.2292C12.5324 45.9711 16.0085 53.3267 22.0668 58.4125C22.354 58.6565 22.5213 59.0149 22.5213 59.3936V66.4366L28.1026 62.8859C28.4422 62.6698 28.8667 62.6343 29.2363 62.7868C32.65 64.1999 36.271 64.9167 40.0018 64.9167C55.1475 64.9167 67.4713 52.9454 67.4713 38.2292C67.4713 23.5129 55.1475 11.5417 40.0018 11.5417Z" fill="white" />
  <path d="M28.25 42.25C30.0449 42.25 31.5 40.7949 31.5 39C31.5 37.2051 30.0449 35.75 28.25 35.75C26.4551 35.75 25 37.2051 25 39C25 40.7949 26.4551 42.25 28.25 42.25Z" fill="white" />
  <path d="M39.25 42.25C41.0449 42.25 42.5 40.7949 42.5 39C42.5 37.2051 41.0449 35.75 39.25 35.75C37.4551 35.75 36 37.2051 36 39C36 40.7949 37.4551 42.25 39.25 42.25Z" fill="white" />
  <path d="M51.25 42.25C53.0449 42.25 54.5 40.7949 54.5 39C54.5 37.2051 53.0449 35.75 51.25 35.75C49.4551 35.75 48 37.2051 48 39C48 40.7949 49.4551 42.25 51.25 42.25Z" fill="white" />
</svg>