<svg width="259" height="169" viewBox="0 0 259 169" fill="none" xmlns="http://www.w3.org/2000/svg">
<path opacity="0.1" d="M0 162V0H56.7683C67.1179 0 76.0387 1.92858 83.5305 5.78574C91.0996 9.64287 96.8923 15.0814 100.909 22.1014C105.002 29.0442 107.049 37.1829 107.049 46.5171C107.049 54.6944 105.118 61.9457 101.256 68.2714C97.4716 74.52 92.0265 79.6114 84.9207 83.5457C77.8923 87.4029 69.5122 89.7942 59.7805 90.72L114 162H96.8537L43.3292 90.9514H13.439V162H0ZM13.439 78.4542H52.8292C65.7277 78.4542 75.7298 75.6 82.8354 69.8914C90.0183 64.1057 93.6097 56.3144 93.6097 46.5171C93.6097 36.3342 90.5204 28.1185 84.3414 21.8699C78.1627 15.6214 68.5853 12.4971 55.6097 12.4971H13.439V78.4542Z" fill="white"/>
<path opacity="0.1" d="M208.343 169C195.114 169 182.975 166.994 171.925 162.981C160.875 158.968 151.303 153.258 143.212 145.849C135.196 138.441 128.972 129.605 124.536 119.342C120.178 109.001 118 97.5416 118 84.963C118 72.3074 120.101 60.8091 124.303 50.4684C128.582 40.0506 134.574 31.0991 142.278 23.6136C150.059 16.0511 159.28 10.2249 169.941 6.13493C180.601 2.04498 192.389 0 205.308 0C211.298 0 217.214 0.501599 223.05 1.50479C228.886 2.508 234.409 4.01279 239.624 6.01919C244.914 8.02557 249.662 10.6107 253.864 13.7747L247.328 24.7712C241.025 20.8355 234.099 17.9032 226.551 15.974C219.081 13.9676 211.611 12.9644 204.141 12.9644C193.323 12.9644 183.481 14.6235 174.61 17.9418C165.739 21.2601 158.113 26.0445 151.733 32.2951C145.43 38.5458 140.565 46.0698 137.142 54.8671C133.718 63.6643 132.007 73.542 132.007 84.5C132.007 99.5479 135.158 112.474 141.461 123.278C147.841 134.004 156.752 142.222 168.19 147.933C179.706 153.643 193.169 156.499 208.576 156.499C217.214 156.499 224.761 155.65 231.22 153.952C237.678 152.254 242.58 150.325 245.927 148.164V98.6219H205.308V86.1205H259V154.878C255.342 157.811 250.44 160.357 244.293 162.518C238.223 164.601 231.92 166.183 225.384 167.264C218.848 168.421 213.166 169 208.343 169Z" fill="white"/>
</svg>
