<svg width="20" height="21" viewBox="0 0 20 21" fill="none" xmlns="http://www.w3.org/2000/svg">
  <path d="M11.4421 3.4252L12.9087 6.35853C13.1087 6.76686 13.6421 7.15853 14.0921 7.23353L16.7504 7.6752C18.4504 7.95853 18.8504 9.19186 17.6254 10.4085L15.5587 12.4752C15.2087 12.8252 15.0171 13.5002 15.1254 13.9835L15.7171 16.5419C16.1837 18.5669 15.1087 19.3502 13.3171 18.2919L10.8254 16.8169C10.3754 16.5502 9.63375 16.5502 9.17541 16.8169L6.68375 18.2919C4.90041 19.3502 3.81708 18.5585 4.28375 16.5419L4.87541 13.9835C4.98375 13.5002 4.79208 12.8252 4.44208 12.4752L2.37541 10.4085C1.15875 9.19186 1.55041 7.95853 3.25041 7.6752L5.90875 7.23353C6.35041 7.15853 6.88375 6.76686 7.08375 6.35853L8.55041 3.4252C9.35041 1.83353 10.6504 1.83353 11.4421 3.4252Z" fill="#FFC458" />
</svg>