<svg width="80" height="78" viewBox="0 0 80 78" fill="none" xmlns="http://www.w3.org/2000/svg">
<circle cx="39.5" cy="38.5" r="32.5" fill="#FFC458"/>
<path d="M49.8837 17.4127C46.7526 15.8679 43.2276 15 39.5 15C26.5213 15 16 25.5213 16 38.5C16 51.4787 26.5213 62 39.5 62C52.4787 62 63 51.4787 63 38.5C63 36.2451 62.6824 34.0643 62.0895 32" stroke="white" stroke-width="2" stroke-linecap="round"/>
<path d="M48.8424 40.2231C47.8905 45.3828 42.9361 48.7938 37.7765 47.8419C32.6168 46.8899 29.2058 41.9356 30.1577 36.7759C31.1097 31.6163 36.0641 28.2053 41.2237 29.1572" stroke="white" stroke-width="2" stroke-linecap="round"/>
<path d="M40 38.5527L58.0956 22.6714M76.8266 6.85236L70.6886 12.1382M70.6886 12.1382L65.3065 16.3964L60.1548 20.8794L58.0956 22.6714M70.6886 12.1382L69.4485 3.09614L58.9192 15.92L58.0956 22.6714M70.6886 12.1382L78.069 15.8647L64.8485 22.5369L58.0956 22.6714" stroke="white" stroke-width="2" stroke-linecap="round" stroke-linejoin="round"/>
</svg>
