<svg width="53" height="52" viewBox="0 0 53 52" fill="none" xmlns="http://www.w3.org/2000/svg">
<path d="M23.867 37.6122L14.3357 28.1396C13.0096 29.4051 10.9795 29.3582 10.1302 29.1766C8.2079 28.8309 3.90227 28.0327 2.0586 27.6052C0.214935 27.1778 2.02561 25.367 3.1614 24.515C5.48329 22.3326 10.5251 17.5174 12.1174 15.7157C13.7097 13.9139 15.3648 13.673 15.9933 13.7777C16.3076 13.8301 17.2818 13.9977 18.6645 14.2491C20.0473 14.5005 21.1489 13.8148 21.5269 13.4405L29.1962 7.40808C31.8862 5.36834 38.7949 1.24351 44.9092 1.06216C51.0235 0.8808 51.4941 5.21721 50.9652 7.40808C50.7493 8.98436 49.8252 13.2186 47.8562 17.5452C45.3949 22.9535 39.1122 30.0135 38.2055 31.3736C37.2987 32.7338 37.914 31.6975 38.2055 34.8064C38.4386 37.2936 36.9424 39.4267 36.1652 40.1824C33.5852 42.8487 28.0042 48.5053 26.3201 49.8007C24.6361 51.0961 24.1503 50.3405 24.118 49.8007L22.8549 41.2187C22.8765 40.6465 23.0687 39.4246 23.6646 39.1137C24.2605 38.8028 24.0478 37.9832 23.867 37.6122Z" stroke="white" stroke-width="2" stroke-linecap="round" stroke-linejoin="round"/>
<path d="M19.8206 38.5298L13.5361 32.4175C10.7085 33.6653 8.04623 39.6211 7.06855 42.4431C6.3876 43.8745 5.43427 46.6372 7.06855 46.2369C8.70283 45.8367 12.3355 44.0968 13.9475 43.2769C15.0176 42.7071 17.4662 41.2905 18.7003 40.1824C19.9343 39.0742 19.9613 38.6189 19.8206 38.5298Z" stroke="white" stroke-width="2" stroke-linecap="round" stroke-linejoin="round"/>
<circle cx="31.1562" cy="20.7363" r="8.33984" fill="#F6B745"/>
</svg>
