<svg width="52" height="52" viewBox="0 0 52 52" fill="none" xmlns="http://www.w3.org/2000/svg">
<circle cx="24.375" cy="17.0059" r="10.8867" fill="#F6B745"/>
<path d="M26.3774 20.7667V16.1805M26.3774 16.1805V9.07227L36.4268 12.5123L26.3774 16.1805Z" stroke="white" stroke-width="1.5" stroke-linecap="round" stroke-linejoin="round"/>
<path d="M8.48438 46.6839C8.99969 43.2385 9.65205 41.8258 11.3325 37.3214M44.2704 46.6839C42.6237 40.48 40.9235 36.9477 39.5525 33.4209M11.3325 37.3214C13.9097 30.4136 18.3896 21.9323 23.8984 21.0785C32.3405 19.7699 35.7152 23.5488 39.5525 33.4209M11.3325 37.3214C12.7635 35.2144 16.8348 28.5571 19.9742 32.2816C23.8984 36.9371 25.5524 41.3526 32.3903 40.4797C37.8605 39.7814 39.326 35.4577 39.5525 33.4209" stroke="white" stroke-width="2" stroke-linecap="round" stroke-linejoin="round"/>
</svg>
