<svg width="60" height="61" viewBox="0 0 60 61" fill="none" xmlns="http://www.w3.org/2000/svg">
<path d="M31.4738 40.5586C20.1989 40.5586 13.768 32.6757 13.5 19.5586H19.1477C19.3332 29.1862 23.4969 33.2643 26.7948 34.1051V19.5586H32.1127V27.8619C35.3695 27.5045 38.7911 23.7208 39.9453 19.5586H45.2633C44.8283 21.7172 43.9613 23.7611 42.7164 25.5623C41.4715 27.3636 39.8756 28.8835 38.0284 30.0271C40.0903 31.0719 41.9115 32.5508 43.3718 34.3662C44.8321 36.1816 45.8983 38.2921 46.5 40.5586H40.6462C40.106 38.59 39.0081 36.8278 37.4901 35.4928C35.9721 34.1579 34.1015 33.3095 32.1127 33.0541V40.5586H31.4738Z" fill="white"/>
</svg>
