<svg width="60" height="61" viewBox="0 0 60 61" fill="none" xmlns="http://www.w3.org/2000/svg">
<path fill-rule="evenodd" clip-rule="evenodd" d="M16.8937 40.6438C16.3053 40.4697 15.7685 40.16 15.3284 39.7409C14.8884 39.3217 14.5581 38.8054 14.3654 38.2354C13.2644 35.2896 12.9381 22.989 15.0587 20.5607C15.7644 19.7708 16.7608 19.2844 17.8317 19.2072C23.5204 18.6101 41.0962 18.6897 43.1148 19.4063C43.6825 19.5861 44.2012 19.889 44.632 20.2923C45.0628 20.6956 45.3945 21.1888 45.6023 21.735C46.8053 24.7803 46.8461 35.847 45.4392 38.7728C45.066 39.5345 44.4412 40.1514 43.6653 40.5244C41.5448 41.5594 19.7075 41.5395 16.8937 40.6438ZM25.9263 34.8717L36.1211 29.6966L25.9263 24.4818V34.8717Z" fill="white"/>
</svg>
