<svg width="52" height="52" fill="none" xmlns="http://www.w3.org/2000/svg"><circle cx="18.5" cy="17.5" r="11.5" fill="#FFC458"/><path d="M13.141 36.868a13.658 13.658 0 0 1-.14-2.103c.062-7.084 5.143-11.165 8.195-12.596a1.08 1.08 0 0 0 .636-.966v-9.441a.883.883 0 0 0-.884-.884.883.883 0 0 1-.883-.883V7.009A1.01 1.01 0 0 1 21.075 6h10.092c.558 0 1.01.452 1.01 1.01v2.985a.883.883 0 0 1-.883.883.883.883 0 0 0-.884.883v9.515c0 .38.216.727.55.908 5.075 2.738 7.345 6.36 8.158 9.637m-25.977 5.047c.912 6.221 6.007 9.459 8.691 10.345 4.205 1.29 13.507 1.363 17.073-8.663.56-1.544.885-4.018.213-6.729m-25.977 5.047c2.084.645 8 1.127 14.999-2.103 6.997-3.23 10.234-3.308 10.978-2.944" stroke="#fff" stroke-width="2"/></svg>