<svg width="53" height="52" fill="none" xmlns="http://www.w3.org/2000/svg"><path d="M37.307 45.333 47.7 46.39a1.43 1.43 0 0 0 1.546-1.712l-2.273-11.01M3.661 37.286l9.145-1.343c.275-.04 1.203-.031 1.928-.015a.515.515 0 0 0 .521-.556c-.256-3.361.233-10.207 4.077-14.793 3.754-4.478 9.615-5.965 12.684-6.218.349-.03.576-.389.41-.697-1.343-2.495-4.214-4.91-5.584-5.869-3.159-1.937-11.265-4.291-18.417 1.788-7.048 5.99-5.403 14.152-3.637 17.64.05.1.067.211.046.322l-1.733 9.157a.496.496 0 0 0 .56.584Z" stroke="#fff" stroke-width="1.667" stroke-linejoin="round"/><circle cx="34.08" cy="31.209" r="15.109" fill="#FFC458"/><circle cx="27.299" cy="30.999" r="1.649" stroke="#fff" stroke-width="1.667"/><circle cx="33.749" cy="30.999" r="1.649" stroke="#fff" stroke-width="1.667"/><circle cx="40.701" cy="30.999" r="1.649" stroke="#fff" stroke-width="1.667"/></svg>