<svg width="53" height="52" fill="none" xmlns="http://www.w3.org/2000/svg"><circle cx="15.305" cy="15" r="11" fill="#FFC458"/><circle cx="37.305" cy="37" r="11" fill="#FFC458"/><path d="M11.977 17.33c0 1.29.99 2.33 2.22 2.33h2.51c1.07 0 1.94-.91 1.94-2.03 0-1.22-.53-1.65-1.32-1.93l-4.03-1.4c-.79-.28-1.32-.71-1.32-1.93 0-1.12.87-2.03 1.94-2.03h2.51c1.23 0 2.22 1.04 2.22 2.33M15.305 9v12" stroke="#fff" stroke-width="1.5" stroke-linecap="round" stroke-linejoin="round"/><path d="M32.448 40.886v-1.188h9.378v1.188h-9.378ZM34.85 44V31.4h3.267c1.218 0 2.154.294 2.808.882.66.588.99 1.383.99 2.385 0 .726-.144 1.341-.432 1.845-.282.504-.723.885-1.323 1.143-.594.258-1.362.387-2.304.387h-5.41v-1.179h5.428c.93 0 1.587-.177 1.97-.531.385-.36.577-.882.577-1.566 0-.612-.18-1.098-.54-1.458-.36-.36-.933-.54-1.72-.54H36.39V44h-1.54Z" fill="#fff"/><path d="M26.71 8.756c5.628-.735 17.148 1.486 18.2 16.248m0 0-3.206-2.779m3.206 2.78 2.779-3.206M25.305 44.975c-5.667.343-17-2.773-17-17.975m0 0 3 3.081m-3-3.081-3 3.081" stroke="#fff" stroke-width="1.5" stroke-linecap="round"/></svg>