<svg width="64" height="64" fill="none" xmlns="http://www.w3.org/2000/svg"><circle cx="30" cy="20.93" r="13.399" fill="#F6B745"/><path d="M32.466 25.56v-5.644m0 0v-8.749l12.369 4.234-12.369 4.515Z" stroke="#fff" stroke-width="1.846" stroke-linecap="round" stroke-linejoin="round"/><path d="M10.442 57.458c.635-4.24 1.438-5.979 3.506-11.523m40.539 11.523c-2.027-7.635-4.12-11.983-5.807-16.323m-34.732 4.8c3.172-8.502 8.686-18.94 15.465-19.991 10.39-1.61 14.544 3.04 19.267 15.19m-34.732 4.801c1.761-2.593 6.772-10.787 10.636-6.203 4.83 5.73 6.865 11.165 15.281 10.09 6.733-.86 8.536-6.18 8.815-8.687" stroke="#fff" stroke-width="2" stroke-linecap="round" stroke-linejoin="round"/></svg>