<svg width="64" height="64" fill="none" xmlns="http://www.w3.org/2000/svg"><circle cx="47.179" cy="17.18" r="15.18" fill="#FFC458"/><path d="M22.669 55.333h18.666c9.38 0 11.06-3.756 11.55-8.33l1.75-18.666C55.265 22.643 53.632 18 43.67 18H20.335C10.372 18 8.74 22.643 9.37 28.337l1.75 18.666c.49 4.574 2.17 8.33 11.55 8.33ZM22.666 18v-1.866c0-4.13 0-7.467 7.467-7.467h3.734c7.466 0 7.466 3.337 7.466 7.467V18" stroke="#fff" stroke-width="2" stroke-miterlimit="10" stroke-linecap="round" stroke-linejoin="round"/><path d="M36.667 34.333v2.38c0 2.544-.023 4.62-4.667 4.62-4.62 0-4.666-2.053-4.666-4.596v-2.404c0-2.333 0-2.333 2.333-2.333h4.666c2.334 0 2.334 0 2.334 2.333Zm17.85-4.666a38.464 38.464 0 0 1-17.85 7.047" stroke="#fff" stroke-width="2" stroke-miterlimit="10" stroke-linecap="round" stroke-linejoin="round"/><path d="M10.116 30.296c5.25 3.593 11.176 5.763 17.22 6.44" stroke="#fff" stroke-width="2" stroke-miterlimit="10" stroke-linecap="round" stroke-linejoin="round"/></svg>