<svg width="64" height="64" fill="none" xmlns="http://www.w3.org/2000/svg"><circle cx="21" cy="20" r="13" fill="#FFC458"/><path d="m28.102 14.06-12.04 7.86c-3.86 2.52-3.86 8.16 0 10.68l12.04 7.86c2.16 1.42 5.72 1.42 7.88 0l11.98-7.86c3.84-2.52 3.84-8.14 0-10.66l-11.98-7.86c-2.16-1.44-5.72-1.44-7.88-.02Z" stroke="#fff" stroke-width="2" stroke-linecap="round" stroke-linejoin="round"/><path d="m19.26 35.16-.02 9.38c0 2.54 1.96 5.26 4.36 6.06l6.38 2.12c1.1.36 2.92.36 4.04 0l6.38-2.12c2.4-.8 4.36-3.52 4.36-6.06v-9.28M50.797 39V27" stroke="#fff" stroke-width="2" stroke-linecap="round" stroke-linejoin="round"/></svg>