<svg width="60" height="61" fill="none" xmlns="http://www.w3.org/2000/svg"><path d="M32.893 32.952c-2.357 2.432-2.529 5.464-2.732 12.107 6.193 0 10.468-.022 12.675-2.165C44.979 40.687 45 36.21 45 30.22c-6.643.215-9.675.375-12.107 2.733ZM15 30.219c0 5.99.021 10.468 2.164 12.675 2.207 2.143 6.482 2.165 12.675 2.165-.214-6.643-.375-9.675-2.732-12.107-2.432-2.358-5.464-2.53-12.107-2.733Zm14.84-15.16c-6.183 0-10.469.021-12.676 2.164C15.021 19.43 15 23.909 15 29.898c6.643-.214 9.675-.375 12.107-2.732 2.357-2.432 2.529-5.465 2.732-12.107Zm3.053 12.107c-2.357-2.432-2.529-5.465-2.732-12.107 6.193 0 10.468.021 12.675 2.164C44.979 19.43 45 23.909 45 29.898c-6.643-.214-9.675-.375-12.107-2.732Z" fill="#fff"/></svg>