<svg width="1906" height="187" fill="none" xmlns="http://www.w3.org/2000/svg"><path d="M.808 179.787V4.279h61.404c11.195 0 20.844 2.09 28.948 6.268 8.187 4.18 14.453 10.071 18.797 17.677 4.428 7.521 6.642 16.338 6.642 26.451 0 8.86-2.088 16.715-6.266 23.568-4.093 6.77-9.983 12.286-17.67 16.548-7.602 4.179-16.666 6.77-27.192 7.773l58.647 77.223h-18.547l-57.895-76.973H15.345v76.973H.808Zm14.537-90.512h42.607c13.951 0 24.77-3.092 32.456-9.277 7.77-6.268 11.655-14.709 11.655-25.323 0-11.032-3.342-19.933-10.026-26.702-6.683-6.77-17.043-10.154-31.078-10.154H15.345v71.456Zm181.353 90.512V4.279h103.26v13.54h-88.723v62.18h78.698v13.538h-78.698v72.711h89.475v13.539H196.698Zm182.92 0V4.279H432c15.79 0 28.655 3.761 38.597 11.283 10.025 7.438 15.038 18.387 15.038 32.845 0 5.767-1.547 11.366-4.637 16.799-3.008 5.432-6.809 10.154-11.404 14.165-4.596 4.012-9.19 6.728-13.784 8.149 9.774 2.591 18.085 7.773 24.937 15.545 6.933 7.689 10.401 17.551 10.401 29.586 0 8.859-2.255 16.84-6.767 23.944-4.428 7.104-10.777 12.745-19.047 16.924-8.271 4.179-18.046 6.268-29.324 6.268h-56.392Zm14.537-13.539h38.346c14.953 0 26.023-2.842 33.209-8.525 7.268-5.683 10.902-14.458 10.902-26.326 0-11.7-3.759-20.56-11.278-26.577-7.436-6.017-19.133-9.026-35.089-9.026h-36.09v70.454Zm0-83.993h34.837c8.437 0 15.79-1.337 22.056-4.012 6.348-2.674 11.278-6.519 14.787-11.533 3.509-5.015 5.263-11.032 5.263-18.052 0-10.03-3.676-17.677-11.028-22.942-7.353-5.265-17.794-7.898-31.328-7.898h-34.587v64.437Zm173.524 97.532V4.279h103.259v13.54h-88.723v62.18h78.698v13.538h-78.698v72.711h89.475v13.539H567.679Zm182.92 0V4.279h14.536v161.969h82.457v13.539h-96.993Zm245.635 3.764c-14.203 0-27.236-2.173-39.098-6.519-11.865-4.346-22.141-10.53-30.828-18.554-8.606-8.023-15.288-17.592-20.05-28.708-4.679-11.199-7.018-23.61-7.018-37.232 0-13.707 2.256-26.16 6.767-37.358 4.594-11.283 11.028-20.978 19.299-29.085 8.353-8.19 18.253-14.5 29.699-18.93C966.449 2.737 979.106.522 992.976.522c6.431 0 12.784.544 19.044 1.63 6.27 1.087 12.2 2.716 17.8 4.89 5.68 2.172 10.78 4.972 15.29 8.399l-7.02 11.909c-6.77-4.262-14.2-7.438-22.31-9.527-8.02-2.173-16.037-3.26-24.057-3.26-11.614 0-22.181 1.797-31.705 5.39-9.524 3.595-17.712 8.776-24.562 15.546-6.767 6.77-11.99 14.918-15.664 24.445-3.677 9.528-5.514 20.225-5.514 32.093 0 16.297 3.383 30.296 10.15 41.997 6.85 11.617 16.417 20.517 28.698 26.702 12.363 6.184 26.817 9.277 43.359 9.277 9.275 0 17.375-.92 24.315-2.758 6.93-1.839 12.19-3.928 15.79-6.268V107.33h-43.614V93.791h57.644v74.466c-3.93 3.176-9.19 5.934-15.79 8.274a124.455 124.455 0 0 1-20.3 5.139c-7.02 1.254-13.12 1.881-18.296 1.881Zm137.096-3.764V4.279h61.4c11.2 0 20.85 2.09 28.95 6.268 8.19 4.18 14.45 10.071 18.8 17.677 4.43 7.521 6.64 16.338 6.64 26.451 0 8.86-2.09 16.715-6.26 23.568-4.1 6.77-9.99 12.286-17.67 16.548-7.61 4.179-16.67 6.77-27.2 7.773l58.65 77.223h-18.55l-57.89-76.973h-32.33v76.973h-14.54Zm14.54-90.512h42.6c13.95 0 24.77-3.092 32.46-9.277 7.77-6.268 11.65-14.709 11.65-25.323 0-11.032-3.34-19.933-10.02-26.702-6.68-6.77-17.04-10.154-31.08-10.154h-45.61v71.456Zm258.86 94.276c-12.87 0-24.86-2.298-35.97-6.895-11.03-4.68-20.68-11.157-28.95-19.431-8.18-8.274-14.57-17.969-19.17-29.084-4.59-11.116-6.89-23.151-6.89-36.105 0-13.038 2.3-25.114 6.89-36.23 4.6-11.115 10.99-20.81 19.17-29.084 8.27-8.274 17.92-14.709 28.95-19.306 11.11-4.596 23.1-6.895 35.97-6.895 12.78 0 24.68 2.34 35.71 7.02 11.03 4.681 20.68 11.2 28.95 19.557 8.27 8.358 14.7 18.094 19.3 29.21 4.68 11.032 7.01 22.941 7.01 35.728 0 12.954-2.33 24.989-7.01 36.105-4.6 11.115-11.03 20.81-19.3 29.084-8.27 8.274-17.92 14.751-28.95 19.431-11.03 4.597-22.93 6.895-35.71 6.895Zm0-14.041c10.52 0 20.38-1.838 29.57-5.516 9.19-3.677 17.25-8.9 24.19-15.67 6.93-6.853 12.36-15.044 16.29-24.571 3.92-9.528 5.89-20.1 5.89-31.717 0-15.545-3.43-29.126-10.28-40.743-6.77-11.617-15.91-20.643-27.44-27.078-11.45-6.435-24.19-9.653-38.22-9.653-10.53 0-20.39 1.839-29.58 5.516-9.19 3.677-17.25 8.943-24.18 15.796-6.94 6.77-12.37 14.918-16.3 24.445-3.92 9.444-5.89 20.017-5.89 31.717 0 15.545 3.39 29.126 10.16 40.743 6.85 11.617 16 20.643 27.44 27.078 11.53 6.436 24.31 9.653 38.35 9.653Zm230.55 14.038c-14.87 0-27.24-3.092-37.1-9.277-9.86-6.268-17.25-14.584-22.18-24.947s-7.39-21.771-7.39-34.224V4.28h14.54v108.814c0 18.888 4.72 33.012 14.16 42.373 9.52 9.36 22.18 14.04 37.97 14.04s28.4-4.68 37.84-14.04c9.53-9.361 14.29-23.485 14.29-42.373V4.279h14.54V115.1c0 12.453-2.47 23.861-7.4 34.224-4.93 10.363-12.32 18.679-22.18 24.947-9.86 6.185-22.22 9.277-37.09 9.277Zm150.55-3.761V4.279h56.64c11.86 0 22.27 2.006 31.2 6.018 9.03 4.011 16.05 9.778 21.06 17.3 5.09 7.438 7.64 16.38 7.64 26.827 0 10.782-2.34 19.85-7.02 27.204-4.67 7.355-11.48 12.954-20.42 16.799-8.94 3.76-19.84 5.641-32.71 5.641h-41.85v75.719h-14.54Zm14.54-89.258h43.61c13.95 0 24.72-3.009 32.33-9.026 7.68-6.101 11.53-14.96 11.53-26.577 0-11.283-3.89-20.267-11.66-26.953-7.77-6.77-18.42-10.154-31.95-10.154h-43.86v72.71Z" opacity=".05" fill="#fff"/></svg>