<svg width="78" height="79" fill="none" xmlns="http://www.w3.org/2000/svg"><circle cx="38.665" cy="40.181" r="25.019" fill="#FFC458"/><path d="M9.48 69.62c-.11-4.323 2.62-13.94 13.76-20.786M64.028 9.229c-4.505 21.794-18.872 28.978-36.892 37.5a40.521 40.521 0 0 0-3.896 2.105M64.028 9.229c2.354 6.656 6.234 22.841 2.923 34.335-3.312 11.494-14.205 16.56-19.238 17.655-6.819 1.403-21.26.89-24.474-12.385M64.03 9.229c-2.233 3.084-8.621 9.521-16.316 10.592-7.695 1.072-12.054 2.476-13.272 3.044-13.929 6.137-13.271 19.87-11.202 25.969" stroke="#fff" stroke-width="3.033" stroke-linecap="round" stroke-linejoin="round"/></svg>