<svg width="281" height="29" fill="none" xmlns="http://www.w3.org/2000/svg"><g clip-path="url(#a)" fill="#fff"><path d="M.12 26.994V1.129h9.052c1.65 0 3.073.308 4.268.924 1.207.615 2.13 1.484 2.77 2.605.654 1.108.98 2.408.98 3.898 0 1.305-.308 2.463-.924 3.473-.603.998-1.471 1.81-2.605 2.439-1.12.616-2.457.998-4.009 1.145L18.3 26.994h-2.735L7.03 15.65H2.262v11.344H.12Zm2.142-13.339h6.282c2.057 0 3.652-.456 4.785-1.367 1.145-.924 1.718-2.168 1.718-3.732 0-1.626-.493-2.938-1.478-3.935-.985-.998-2.513-1.497-4.582-1.497H2.262v10.531Zm26.737 13.339V1.129h15.223v1.995h-13.08v9.164h11.603v1.995H31.142V25h13.191v1.995H29Zm26.968 0V1.129h7.722c2.328 0 4.225.554 5.69 1.663 1.479 1.096 2.218 2.71 2.218 4.84 0 .85-.228 1.675-.684 2.476a7.698 7.698 0 0 1-1.681 2.087c-.678.592-1.355.992-2.032 1.201 1.44.382 2.666 1.146 3.676 2.291 1.022 1.133 1.534 2.587 1.534 4.36 0 1.306-.333 2.482-.998 3.53-.653 1.046-1.589 1.877-2.808 2.493-1.22.616-2.66.924-4.323.924h-8.314Zm2.143-1.995h5.653c2.205 0 3.837-.42 4.896-1.257 1.072-.837 1.607-2.13 1.607-3.88 0-1.724-.554-3.03-1.662-3.916-1.097-.887-2.821-1.33-5.173-1.33H58.11v10.383Zm0-12.379h5.136c1.244 0 2.328-.197 3.252-.59.936-.395 1.662-.961 2.18-1.7.517-.74.776-1.626.776-2.66 0-1.479-.542-2.606-1.626-3.382-1.084-.776-2.624-1.164-4.619-1.164h-5.1v9.496Zm25.582 14.374V1.129h15.224v1.995h-13.08v9.164h11.602v1.995H85.835V25h13.192v1.995H83.692Zm26.968 0V1.129h2.143v23.87h12.157v1.995h-14.3Zm36.214.558c-2.094 0-4.015-.32-5.764-.961-1.749-.64-3.264-1.552-4.545-2.734a12.368 12.368 0 0 1-2.956-4.231c-.69-1.65-1.035-3.48-1.035-5.487 0-2.02.333-3.855.998-5.506.677-1.663 1.626-3.091 2.845-4.286 1.232-1.207 2.691-2.137 4.379-2.79 1.687-.652 3.553-.979 5.598-.979.948 0 1.884.08 2.808.24.924.16 1.798.4 2.623.72a9.06 9.06 0 0 1 2.254 1.239l-1.034 1.755a11.532 11.532 0 0 0-3.289-1.404 13.516 13.516 0 0 0-3.547-.48c-1.712 0-3.27.264-4.674.794-1.404.53-2.612 1.293-3.621 2.29-.998.998-1.768 2.2-2.31 3.603-.542 1.404-.813 2.981-.813 4.73 0 2.402.499 4.465 1.497 6.19 1.01 1.711 2.42 3.023 4.23 3.934 1.823.912 3.954 1.367 6.393 1.367 1.367 0 2.562-.135 3.584-.406 1.022-.271 1.798-.579 2.328-.924V16.32h-6.429v-1.995h8.498v10.974c-.579.468-1.355.874-2.328 1.22-.96.332-1.958.584-2.993.757-1.034.184-1.934.277-2.697.277Zm20.212-.558V1.129h9.053c1.65 0 3.073.308 4.267.924 1.207.615 2.131 1.484 2.772 2.605.652 1.108.979 2.408.979 3.898 0 1.305-.308 2.463-.924 3.473-.604.998-1.472 1.81-2.605 2.439-1.121.616-2.457.998-4.009 1.145l8.646 11.381h-2.734l-8.535-11.344h-4.767v11.344h-2.143Zm2.143-13.339h6.282c2.056 0 3.651-.456 4.785-1.367 1.145-.924 1.718-2.168 1.718-3.732 0-1.626-.493-2.938-1.478-3.935-.986-.998-2.513-1.497-4.582-1.497h-6.725v10.531Zm38.163 13.897c-1.896 0-3.664-.339-5.302-1.016a13.346 13.346 0 0 1-4.268-2.864 13.18 13.18 0 0 1-2.826-4.286c-.678-1.638-1.017-3.412-1.017-5.321 0-1.921.339-3.701 1.017-5.34a13.18 13.18 0 0 1 2.826-4.286 13.098 13.098 0 0 1 4.268-2.845c1.638-.677 3.406-1.016 5.302-1.016 1.885 0 3.64.345 5.266 1.035a13.198 13.198 0 0 1 7.113 7.187c.69 1.625 1.034 3.38 1.034 5.265 0 1.909-.344 3.683-1.034 5.32a13.056 13.056 0 0 1-2.845 4.287 13.346 13.346 0 0 1-4.268 2.864c-1.626.677-3.381 1.016-5.266 1.016Zm0-2.07c1.552 0 3.006-.27 4.361-.812a10.787 10.787 0 0 0 3.565-2.31c1.023-1.01 1.823-2.217 2.402-3.62.579-1.405.868-2.963.868-4.675 0-2.291-.504-4.292-1.515-6.004-.997-1.712-2.346-3.043-4.046-3.991-1.687-.948-3.565-1.423-5.635-1.423-1.551 0-3.005.271-4.36.813a10.646 10.646 0 0 0-3.565 2.328c-1.022.998-1.823 2.199-2.402 3.603-.579 1.392-.868 2.95-.868 4.674 0 2.29.498 4.292 1.496 6.004 1.01 1.712 2.359 3.043 4.046 3.99 1.7.95 3.584 1.424 5.653 1.424Zm33.99 2.066c-2.192 0-4.015-.455-5.468-1.367-1.454-.924-2.544-2.15-3.27-3.676-.727-1.528-1.09-3.209-1.09-5.044V1.129h2.143v16.036c0 2.784.696 4.865 2.088 6.245 1.404 1.38 3.27 2.07 5.597 2.07 2.328 0 4.188-.69 5.58-2.07 1.404-1.38 2.106-3.461 2.106-6.245V1.13h2.143v16.33c0 1.835-.363 3.516-1.09 5.044-.727 1.527-1.817 2.752-3.27 3.676-1.453.912-3.276 1.367-5.469 1.367Zm22.196-.554V1.129h8.351c1.749 0 3.282.296 4.6.887 1.33.59 2.365 1.44 3.104 2.55.751 1.095 1.127 2.413 1.127 3.953 0 1.589-.345 2.925-1.035 4.009-.689 1.084-1.693 1.91-3.011 2.476-1.318.554-2.925.831-4.822.831h-6.171v11.159h-2.143Zm2.143-13.154h6.43c2.057 0 3.645-.444 4.766-1.33 1.133-.9 1.7-2.205 1.7-3.917 0-1.663-.573-2.987-1.718-3.972-1.146-.998-2.716-1.497-4.711-1.497h-6.467V13.84Z"/></g><defs><clipPath id="a"><path fill="#fff" transform="translate(0 .941)" d="M0 0h281v27.117H0z"/></clipPath></defs></svg>