<svg width="79" height="79" fill="none" xmlns="http://www.w3.org/2000/svg"><path d="m20.5 39.5 4.25 4.5M29 48.5 24.75 44m0 0-4.25 4.5m4.25-4.5L29 39.5M69 43l4.25 4.5M77.5 52l-4.25-4.5m0 0L69 52m4.25-4.5L77.5 43M45 69l4.25 4.5M53.5 78l-4.25-4.5m0 0L45 78m4.25-4.5L53.5 69" stroke="#fff" stroke-width="2" stroke-linecap="round"/><circle cx="4.5" cy="67.5" r="3.5" stroke="#fff" stroke-width="2"/><circle cx="52" cy="23" r="22" fill="#FFC458"/><path d="M7.5 67.5c14.333.5 45-7.5 45-44.5" stroke="#fff" stroke-width="2"/><path d="m47 28 5.5-5 5.5 5" stroke="#fff" stroke-width="2" stroke-linecap="round"/></svg>