<svg width="28" height="28" fill="none" xmlns="http://www.w3.org/2000/svg"><path d="M24.5 16.625a.875.875 0 0 1-.875.875H21v1.75h1.75a.875.875 0 1 1 0 1.75H21v1.75a.875.875 0 1 1-1.75 0v-6.125a.875.875 0 0 1 .875-.875h3.5a.875.875 0 0 1 .875.875Zm-14.438 2.188A3.062 3.062 0 0 1 7 21.875h-.875v.875a.875.875 0 1 1-1.75 0v-6.125a.875.875 0 0 1 .875-.875H7a3.063 3.063 0 0 1 3.063 3.063Zm-1.75 0A1.313 1.313 0 0 0 7 17.5h-.875v2.625H7a1.313 1.313 0 0 0 1.313-1.313Zm9.626.875A3.937 3.937 0 0 1 14 23.625h-1.75a.875.875 0 0 1-.875-.875v-6.125a.875.875 0 0 1 .875-.875H14a3.937 3.937 0 0 1 3.938 3.938Zm-1.75 0A2.188 2.188 0 0 0 14 17.5h-.875v4.375H14a2.188 2.188 0 0 0 2.188-2.188ZM4.374 12.25V4.375a1.75 1.75 0 0 1 1.75-1.75h10.5a.875.875 0 0 1 .62.256l6.124 6.125a.875.875 0 0 1 .256.619v2.625a.875.875 0 1 1-1.75 0V10.5h-5.25a.875.875 0 0 1-.875-.875v-5.25H6.125v7.875a.875.875 0 1 1-1.75 0ZM17.5 8.75h3.138L17.5 5.612V8.75Z" fill="#FFC458"/></svg>