<svg width="78" height="78" fill="none" xmlns="http://www.w3.org/2000/svg"><path d="M38.913 10h.029c9.65 0 20.517 5.57 23.604 17.847l.141.59c3.232 14.254-5.48 26.412-13.627 34.246l-.004.002c-1.489 1.447-3.142 2.91-4.877 4.008-1.741 1.102-3.486 1.787-5.17 1.787-1.689 0-3.469-.687-5.25-1.791-1.772-1.1-3.466-2.564-4.965-4.006-8.019-7.711-16.587-19.641-13.77-33.61l.144-.666C18.05 15.722 29.135 10 38.913 10Z" stroke="#FFC458" stroke-width="2"/><path d="M37.675 33.954c-2.804.271-5.343.524-5.643.56l-.529.054.424.253c.229.126.899.27 1.498.325l1.076.09 2.645 2.69c3.086 3.104 3.632 3.429 5.819 3.537 1.375.072 1.393.072 1.058-.253-.212-.18-1.887-1.606-3.756-3.176-1.869-1.57-3.35-2.942-3.28-3.033.177-.289 1.129-.162 1.658.217.494.379.564.379 2.416.18 1.287-.162 2.01-.325 2.239-.523.3-.289.811-1.155.811-1.39 0-.144-1.023-.072-6.436.47Zm-2.38.794a.275.275 0 0 1-.265.271.275.275 0 0 1-.264-.27c0-.145.123-.271.264-.271.141 0 .264.126.264.27Zm-2.638-5.946v3.464l.568-.106a8.772 8.772 0 0 1 1.191-.106h.605l.055-2.174.055-2.156 2.804-.053c2.474-.035 2.896 0 3.629.3.66.283.898.513 1.172 1.131.367.778.294 1.59-.164 2.139-.129.159.146.176 1.19.088.752-.053 1.412-.159 1.485-.212.055-.07.11-.583.11-1.149 0-1.325-.531-2.438-1.612-3.357-1.338-1.131-2.09-1.273-6.891-1.273h-4.197v3.464Z" fill="#FFC458"/><path d="M36.555 18.654c-9.44 1.718-14.742 12.066-10.497 20.517 1.97 3.938 4.854 6.32 9.171 7.609 2.096.626 5.141.662 7.309.09 1.863-.484 4.388-1.737 5.714-2.847 2.239-1.862 4.03-4.673 4.782-7.556.502-1.897.538-5.013.108-6.839-1.397-5.729-5.911-9.972-11.697-10.974-1.845-.323-3.099-.323-4.89 0Zm5.427 2.596a12.019 12.019 0 0 1 7.828 6.355c.95 1.934 1.29 3.635 1.182 5.908-.179 3.205-1.182 5.443-3.528 7.806-1.254 1.271-1.81 1.683-3.045 2.274-3.601 1.718-7.148 1.718-10.748 0-1.236-.591-1.791-1.02-3.063-2.274-1.254-1.253-1.684-1.844-2.275-3.061-.932-1.898-1.29-3.42-1.29-5.39-.018-7.77 7.416-13.552 14.94-11.618Z" fill="#FFC458"/></svg>