<svg width="78" height="78" fill="none" xmlns="http://www.w3.org/2000/svg"><circle cx="39.5" cy="38.5" r="19.5" fill="#FFC458"/><path d="M21.273 70c-.208 0-.417-.053-.605-.16a1.273 1.273 0 0 1-.644-1.11v-8.744c-6.355-5.556-9.989-13.45-9.989-21.757C10.035 22.113 23.478 9 40.002 9s29.967 13.113 29.967 29.23c0 16.116-13.443 29.228-29.967 29.228-3.838 0-7.572-.699-11.108-2.076l-6.96 4.425c-.202.13-.432.193-.661.193Zm18.729-58.458c-15.146 0-27.47 11.97-27.47 26.687 0 7.742 3.477 15.098 9.535 20.184.287.244.454.602.454.98v7.044l5.582-3.551c.34-.216.764-.252 1.133-.1a28 28 0 0 0 10.766 2.13c15.145 0 27.47-11.97 27.47-26.687 0-14.716-12.324-26.687-27.47-26.687Z" fill="#fff"/><path d="M28.25 42.25a3.25 3.25 0 1 0 0-6.5 3.25 3.25 0 0 0 0 6.5Zm11 0a3.25 3.25 0 1 0 0-6.5 3.25 3.25 0 0 0 0 6.5Zm12 0a3.25 3.25 0 1 0 0-6.5 3.25 3.25 0 0 0 0 6.5Z" fill="#fff"/></svg>