<svg width="259" height="169" fill="none" xmlns="http://www.w3.org/2000/svg"><path opacity=".1" d="M0 162V0h56.768c10.35 0 19.27 1.929 26.763 5.786C91.1 9.643 96.892 15.08 100.909 22.1c4.093 6.943 6.14 15.082 6.14 24.416 0 8.177-1.931 15.429-5.793 21.754-3.784 6.249-9.23 11.34-16.335 15.275-7.029 3.857-15.409 6.248-25.14 7.174L114 162H96.854L43.329 90.951H13.44V162H0Zm13.439-83.546h39.39c12.899 0 22.9-2.854 30.006-8.563 7.183-5.785 10.775-13.577 10.775-23.374 0-10.183-3.09-18.399-9.269-24.647-6.178-6.249-15.756-9.373-28.731-9.373H13.439v65.957ZM208.343 169c-13.229 0-25.368-2.006-36.418-6.019s-20.622-9.723-28.713-17.132c-8.016-7.408-14.24-16.244-18.676-26.507-4.358-10.341-6.536-21.8-6.536-34.379 0-12.656 2.101-24.154 6.303-34.495 4.279-10.417 10.271-19.369 17.975-26.854 7.781-7.563 17.002-13.39 27.663-17.48C180.601 2.046 192.389 0 205.308 0c5.99 0 11.906.502 17.742 1.505s11.359 2.508 16.574 4.514c5.29 2.007 10.038 4.592 14.24 7.756l-6.536 10.996c-6.303-3.936-13.229-6.868-20.777-8.797-7.47-2.006-14.94-3.01-22.41-3.01-10.818 0-20.66 1.66-29.531 4.978-8.871 3.318-16.497 8.102-22.877 14.353-6.303 6.25-11.168 13.775-14.591 22.572-3.424 8.797-5.135 18.675-5.135 29.633 0 15.048 3.151 27.974 9.454 38.778 6.38 10.726 15.291 18.944 26.729 24.655 11.516 5.71 24.979 8.566 40.386 8.566 8.638 0 16.185-.849 22.644-2.547 6.458-1.698 11.36-3.627 14.707-5.788V98.622h-40.619V86.12H259v68.757c-3.658 2.933-8.56 5.479-14.707 7.64-6.07 2.083-12.373 3.665-18.909 4.746-6.536 1.157-12.218 1.736-17.041 1.736Z" fill="#fff"/></svg>