<svg width="20" height="21" fill="none" xmlns="http://www.w3.org/2000/svg"><path d="M11.442 3.425 12.91 6.36c.2.408.733.8 1.183.875l2.658.441c1.7.284 2.1 1.517.875 2.734l-2.066 2.066c-.35.35-.542 1.025-.434 1.508l.592 2.559c.467 2.025-.608 2.808-2.4 1.75l-2.492-1.475c-.45-.267-1.191-.267-1.65 0l-2.491 1.475c-1.784 1.058-2.867.266-2.4-1.75l.591-2.559c.109-.483-.083-1.158-.433-1.508L2.375 10.41c-1.216-1.217-.825-2.45.875-2.734l2.659-.441c.441-.075.975-.467 1.175-.875L8.55 3.425c.8-1.591 2.1-1.591 2.892 0Z" fill="#FFC458"/></svg>