<svg width="80" height="78" fill="none" xmlns="http://www.w3.org/2000/svg"><circle cx="39.5" cy="38.5" r="32.5" fill="#FFC458"/><path d="M49.884 17.413A23.403 23.403 0 0 0 39.5 15C26.521 15 16 25.521 16 38.5S26.521 62 39.5 62 63 51.479 63 38.5c0-2.255-.318-4.436-.91-6.5" stroke="#fff" stroke-width="2" stroke-linecap="round"/><path d="M48.842 40.223a9.5 9.5 0 1 1-18.684-3.447 9.5 9.5 0 0 1 11.066-7.619" stroke="#fff" stroke-width="2" stroke-linecap="round"/><path d="M40 38.553 58.096 22.67m18.73-15.819-6.137 5.286m0 0-5.382 4.258-5.152 4.483-2.06 1.792M70.69 12.138l-1.24-9.042L58.92 15.92l-.823 6.751M70.69 12.138l7.38 3.727-13.22 6.672-6.753.134" stroke="#fff" stroke-width="2" stroke-linecap="round" stroke-linejoin="round"/></svg>