<svg width="53" height="52" fill="none" xmlns="http://www.w3.org/2000/svg"><path d="m23.867 37.612-9.531-9.472c-1.326 1.265-3.357 1.218-4.206 1.037-1.922-.346-6.228-1.144-8.071-1.572-1.844-.427-.033-2.238 1.102-3.09 2.322-2.182 7.364-6.998 8.956-8.8 1.593-1.801 3.248-2.042 3.876-1.937.315.052 1.289.22 2.671.471 1.383.252 2.485-.434 2.863-.809l7.67-6.032c2.69-2.04 9.598-6.164 15.712-6.346 6.114-.181 6.585 4.155 6.056 6.346-.216 1.576-1.14 5.81-3.109 10.137-2.461 5.408-8.744 12.468-9.65 13.829-.907 1.36-.292.324 0 3.432.233 2.488-1.264 4.62-2.04 5.376-2.58 2.667-8.162 8.323-9.846 9.619-1.684 1.295-2.17.54-2.202 0l-1.263-8.582c.021-.572.214-1.794.81-2.105.596-.311.383-1.13.202-1.502Z" stroke="#fff" stroke-width="2" stroke-linecap="round" stroke-linejoin="round"/><path d="m19.82 38.53-6.284-6.113c-2.827 1.248-5.49 7.204-6.467 10.026-.681 1.431-1.635 4.194 0 3.794 1.634-.4 5.266-2.14 6.878-2.96 1.07-.57 3.52-1.986 4.753-3.095 1.234-1.108 1.261-1.563 1.12-1.652Z" stroke="#fff" stroke-width="2" stroke-linecap="round" stroke-linejoin="round"/><circle cx="31.156" cy="20.736" r="8.34" fill="#F6B745"/></svg>