<svg width="52" height="52" fill="none" xmlns="http://www.w3.org/2000/svg"><path d="M8 15c-1.666-2-3.9-7 .5-11s8.834-.667 10.502 1.5M46.784 15c1.785-2.02 4.177-7.07-.536-11.11C41.535-.15 36.786 3.216 35 5.405M14.5 44.5l-5 5m30.5-5 5 5" stroke="#fff" stroke-width="2" stroke-linecap="round" stroke-linejoin="round"/><circle cx="27.5" cy="26.5" r="22.5" fill="#F6B745"/><path d="M25 26h-9m13 1.662L39 37" stroke="#fff" stroke-width="2" stroke-linecap="round" stroke-linejoin="round"/><circle cx="27.5" cy="26.5" r="1.5" stroke="#fff" stroke-width="2"/><ellipse cx="27.5" cy="8" rx="1" ry="2" fill="#fff"/><ellipse cx="1" cy="2" rx="1" ry="2" transform="matrix(1 0 0 -1 26 47)" fill="#fff"/><ellipse cx="2" cy="1" rx="2" ry="1" transform="matrix(1 0 0 -1 44 27)" fill="#fff"/><ellipse cx="2" cy="1" rx="2" ry="1" transform="matrix(-1 0 0 1 11 25)" fill="#fff"/></svg>