<svg width="52" height="52" fill="none" xmlns="http://www.w3.org/2000/svg"><circle cx="24.375" cy="17.006" r="10.887" fill="#F6B745"/><path d="M26.377 20.767V16.18m0 0V9.072l10.05 3.44-10.05 3.668Z" stroke="#fff" stroke-width="1.5" stroke-linecap="round" stroke-linejoin="round"/><path d="M8.484 46.684c.516-3.445 1.168-4.858 2.848-9.363m32.938 9.363c-1.646-6.204-3.347-9.736-4.718-13.263m-28.22 3.9c2.578-6.907 7.058-15.389 12.566-16.242 8.442-1.31 11.817 2.47 15.655 12.342m-28.22 3.9c1.43-2.107 5.502-8.764 8.641-5.04 3.924 4.656 5.578 9.072 12.416 8.199 5.47-.699 6.936-5.022 7.163-7.06" stroke="#fff" stroke-width="2" stroke-linecap="round" stroke-linejoin="round"/></svg>