<svg width="60" height="61" fill="none" xmlns="http://www.w3.org/2000/svg"><path fill-rule="evenodd" clip-rule="evenodd" d="M16.894 40.644a3.855 3.855 0 0 1-1.566-.903 3.73 3.73 0 0 1-.963-1.506c-1.1-2.945-1.427-15.246.694-17.674a4.114 4.114 0 0 1 2.773-1.354c5.688-.597 23.264-.517 25.283.2.567.18 1.086.482 1.517.885.43.404.763.897.97 1.443 1.203 3.045 1.244 14.112-.163 17.038a3.807 3.807 0 0 1-1.774 1.751c-2.12 1.035-23.957 1.015-26.771.12Zm9.032-5.772 10.195-5.175-10.195-5.215v10.39Z" fill="#fff"/></svg>