<svg xmlns="http://www.w3.org/2000/svg" viewBox="0 0 862.121 862.121"><circle cx="431.061" cy="431.061" r="431.061" style="fill:#ffc458"/><path d="M112.437 408.73V282.882h44.047c8.03 0 14.952 1.498 20.765 4.495 5.873 2.996 10.368 7.221 13.484 12.675 3.177 5.393 4.765 11.716 4.765 18.967 0 6.352-1.499 11.986-4.495 16.9-2.936 4.854-7.161 8.81-12.675 11.866-5.453 2.996-11.956 4.854-19.507 5.573l42.07 55.374h-13.304l-41.53-55.194h-23.193v55.194h-10.427Zm10.427-64.902h30.564c10.008 0 17.769-2.217 23.282-6.652 5.573-4.494 8.36-10.547 8.36-18.158 0-7.91-2.397-14.293-7.191-19.147-4.795-4.854-12.226-7.281-22.294-7.281h-32.72v51.238Zm137.548 64.902V282.882h74.071v9.709H270.84v44.586h56.453v9.709H270.84v52.137h64.183v9.709h-74.61Zm138.67 0V282.882h37.575c11.326 0 20.555 2.697 27.687 8.09 7.191 5.334 10.787 13.185 10.787 23.552 0 4.135-1.11 8.15-3.326 12.046-2.158 3.895-4.885 7.281-8.18 10.158-3.297 2.876-6.593 4.824-9.889 5.843 7.012 1.858 12.974 5.573 17.889 11.146 4.973 5.514 7.461 12.585 7.461 21.215 0 6.353-1.618 12.076-4.854 17.17-3.177 5.094-7.73 9.139-13.664 12.135-5.933 2.997-12.944 4.495-21.035 4.495h-40.451Zm10.427-9.708h27.507c10.727 0 18.668-2.037 23.822-6.112 5.214-4.075 7.82-10.368 7.82-18.878 0-8.39-2.696-14.742-8.09-19.057-5.334-4.315-13.724-6.472-25.17-6.472H409.51v50.52Zm0-60.228h24.99c6.052 0 11.327-.958 15.821-2.876 4.555-1.918 8.09-4.675 10.608-8.27 2.517-3.596 3.775-7.91 3.775-12.945 0-7.191-2.637-12.675-7.91-16.45-5.275-3.776-12.765-5.663-22.473-5.663h-24.81v46.204Zm131.928 69.936V282.882h74.072v9.709h-63.644v44.586h56.452v9.709h-56.452v52.137h64.183v9.709h-74.61Zm138.67 0V282.882h10.428v116.141h59.15v9.709h-69.578ZM177.404 579.24c-10.188 0-19.537-1.558-28.046-4.674-8.511-3.117-15.882-7.551-22.114-13.305-6.173-5.753-10.967-12.614-14.383-20.585-3.356-8.03-5.034-16.93-5.034-26.698 0-9.828 1.619-18.758 4.855-26.788 3.295-8.09 7.91-15.042 13.843-20.855 5.992-5.873 13.094-10.398 21.305-13.574 8.209-3.176 17.288-4.764 27.237-4.764 4.614 0 9.17.39 13.664 1.169s8.748 1.947 12.764 3.505c4.075 1.558 7.731 3.566 10.967 6.023l-5.034 8.54c-4.854-3.056-10.188-5.334-16-6.832-5.754-1.558-11.507-2.337-17.26-2.337-8.33 0-15.91 1.288-22.743 3.865-6.832 2.577-12.705 6.293-17.619 11.147-4.854 4.854-8.6 10.697-11.236 17.529-2.637 6.832-3.955 14.503-3.955 23.012 0 11.686 2.427 21.725 7.28 30.115 4.915 8.33 11.777 14.712 20.586 19.147 8.87 4.434 19.237 6.652 31.103 6.652 6.652 0 12.465-.66 17.44-1.978 4.972-1.318 8.748-2.817 11.326-4.495v-38.474h-31.283v-9.708h41.35v53.396c-2.816 2.277-6.592 4.255-11.326 5.933a89.319 89.319 0 0 1-14.562 3.686c-5.034.899-9.41 1.348-13.125 1.348Zm83.434-2.697v-125.85h44.047c8.03 0 14.951 1.499 20.765 4.495 5.872 2.997 10.367 7.222 13.484 12.675 3.176 5.394 4.765 11.716 4.765 18.967 0 6.353-1.5 11.986-4.495 16.9-2.938 4.854-7.163 8.81-12.675 11.866-5.454 2.997-11.956 4.854-19.507 5.573l42.07 55.374h-13.304l-41.53-55.194h-23.193v55.194h-10.427Zm10.427-64.902h30.564c10.007 0 17.768-2.218 23.282-6.652 5.573-4.495 8.36-10.548 8.36-18.159 0-7.91-2.398-14.292-7.191-19.147-4.795-4.854-12.226-7.28-22.294-7.28h-32.72v51.238Zm170.779 67.599c-9.228 0-17.828-1.648-25.8-4.944-7.91-3.356-14.831-8-20.764-13.933-5.872-5.933-10.457-12.885-13.754-20.856-3.295-7.97-4.944-16.6-4.944-25.889 0-9.348 1.649-18.008 4.944-25.979 3.297-7.97 7.882-14.922 13.754-20.855 5.933-5.932 12.854-10.547 20.765-13.843 7.971-3.296 16.57-4.944 25.8-4.944 9.168 0 17.708 1.678 25.618 5.034s14.833 8.03 20.766 14.023c5.932 5.993 10.548 12.975 13.843 20.945 3.357 7.91 5.034 16.45 5.034 25.62 0 9.288-1.677 17.918-5.034 25.888-3.295 7.971-7.91 14.923-13.843 20.856-5.933 5.932-12.855 10.577-20.766 13.933-7.91 3.296-16.45 4.944-25.619 4.944Zm0-10.068c7.551 0 14.624-1.318 21.215-3.955 6.592-2.637 12.376-6.383 17.349-11.237 4.974-4.914 8.87-10.787 11.686-17.619 2.817-6.832 4.225-14.412 4.225-22.743 0-11.146-2.456-20.885-7.371-29.215-4.854-8.33-11.417-14.802-19.687-19.416-8.209-4.615-17.349-6.922-27.417-6.922-7.55 0-14.622 1.318-21.215 3.955-6.59 2.637-12.374 6.412-17.349 11.327-4.973 4.854-8.869 10.697-11.686 17.529-2.816 6.772-4.225 14.353-4.225 22.742 0 11.147 2.427 20.886 7.281 29.215 4.916 8.33 11.478 14.803 19.687 19.417 8.27 4.615 17.44 6.922 27.507 6.922Zm143.02 10.068c-10.668 0-19.537-2.217-26.608-6.652-7.073-4.495-12.376-10.457-15.911-17.889-3.536-7.43-5.304-15.611-5.304-24.54v-79.465h10.428v78.026c0 13.544 3.385 23.672 10.158 30.384 6.832 6.712 15.91 10.068 27.237 10.068s20.375-3.356 27.148-10.068c6.832-6.712 10.247-16.84 10.247-30.384v-78.026h10.428v79.465c0 8.929-1.769 17.11-5.304 24.54-3.536 7.432-8.84 13.394-15.91 17.89-7.073 4.434-15.942 6.651-26.609 6.651Zm85.63-2.697v-125.85h40.631c8.51 0 15.97 1.439 22.383 4.316 6.473 2.876 11.507 7.011 15.102 12.405 3.655 5.333 5.484 11.746 5.484 19.237 0 7.73-1.678 14.233-5.034 19.506-3.357 5.274-8.24 9.29-14.653 12.046-6.413 2.697-14.233 4.045-23.462 4.045h-30.024v54.295h-10.427Zm10.427-64.003h31.283c10.008 0 17.74-2.158 23.192-6.473 5.514-4.374 8.27-10.727 8.27-19.057 0-8.09-2.787-14.532-8.36-19.327-5.573-4.854-13.214-7.28-22.922-7.28H681.12v52.137Z" style="fill:#2b2b2b"/></svg>