<?xml version="1.0" encoding="UTF-8"?><svg id="_Слой_2" xmlns="http://www.w3.org/2000/svg" viewBox="0 0 862.1212 862.1212"><defs><style>.cls-1{fill:#2b2b2b;}.cls-2{fill:#FFC458;}</style></defs><g id="_Слой_1-2"><circle class="cls-2" cx="431.0606" cy="431.0606" r="431.0606"/><g><g><path class="cls-1" d="m112.43694,408.73073v-125.84953h44.0473c8.03045,0,14.95218,1.49822,20.76518,4.49464,5.87303,2.99641,10.36766,7.22135,13.48388,12.67478,3.17625,5.39356,4.76431,11.71605,4.76431,18.96733,0,6.3525-1.49816,11.98572-4.49463,16.8998-2.93644,4.8542-7.16139,8.80947-12.67485,11.86582-5.45343,2.99647-11.95571,4.8542-19.50668,5.57334l42.06972,55.37382h-13.3041l-41.53036-55.19403h-23.19222v55.19403h-10.42754Zm10.42754-64.90243h30.56341c10.00809,0,17.76886-2.2173,23.28217-6.65205,5.57334-4.49463,8.36001-10.5473,8.36001-18.1583,0-7.91054-2.39709-14.29292-7.1914-19.14712-4.79418-4.8542-12.22539-7.28124-22.29336-7.28124h-32.72083v51.2387Z"/><path class="cls-1" d="m260.41168,408.73073v-125.84953h74.07147v9.7084h-63.64393v44.58665h56.45253v9.7084h-56.45253v52.13769h64.18327v9.7084h-74.61081Z"/><path class="cls-1" d="m399.08172,408.73073v-125.84953h37.57509c11.32648,0,20.55495,2.69678,27.68692,8.09033,7.19139,5.33362,10.78711,13.18428,10.78711,23.55179,0,4.13506-1.10916,8.15036-3.32603,12.0456-2.15741,3.8954-4.88465,7.2813-8.18022,10.15786-3.29703,2.87656-6.5926,4.82433-9.88817,5.84302,7.01162,1.85787,12.97352,5.57334,17.88862,11.14668,4.97308,5.51346,7.46108,12.58496,7.46108,21.21464,0,6.35251-1.61806,12.07562-4.85421,17.16948-3.17668,5.094-7.73076,9.13917-13.66366,12.1355-5.9329,2.99646-12.94452,4.49463-21.03485,4.49463h-40.45167Zm10.42754-9.7084h27.50712c10.72623,0,18.66721-2.03752,23.82154-6.1127,5.21376-4.07503,7.82065-10.36751,7.82065-18.87743,0-8.38988-2.69678-14.74238-8.09033-19.05722-5.33411-4.31485-13.72457-6.47227-25.16992-6.47227h-25.88906v50.51962Zm0-60.22802h24.99014c6.05179,0,11.32646-.95881,15.82109-2.87656,4.55406-1.91761,8.09033-4.67441,10.60731-8.27011,2.517-3.5957,3.77549-7.91055,3.77549-12.94453,0-7.19141-2.63733-12.67485-7.91056-16.45034-5.27466-3.77549-12.76474-5.66317-22.47314-5.66317h-24.81035v46.20472Z"/><path class="cls-1" d="m541.43735,408.73073v-125.84953h74.07149v9.7084h-63.64393v44.58665h56.45253v9.7084h-56.45253v52.13769h64.1833v9.7084h-74.61086Z"/><path class="cls-1" d="m680.10741,408.73073v-125.84953h10.42752v116.14113h59.14933v9.7084h-69.57685Z"/></g><g><path class="cls-1" d="m177.40427,579.24c-10.18827,0-19.53714-1.55804-28.04647-4.67441-8.51079-3.11623-15.882-7.55098-22.11355-13.3041-6.17363-5.75313-10.96693-12.61483-14.38283-20.58539-3.35648-8.03031-5.03396-16.92967-5.03396-26.69809,0-9.82816,1.61806-18.75754,4.85419-26.78799,3.29555-8.09033,7.91054-15.04192,13.84346-20.85507,5.99235-5.87293,13.09383-10.39751,21.30454-13.57372,8.2092-3.17619,17.28834-4.7643,27.23742-4.7643,4.61353,0,9.16905.38953,13.66369,1.1686,4.49464.77908,8.74857,1.94768,12.76472,3.50582,4.0742,1.55813,7.73076,3.56572,10.96689,6.02279l-5.03396,8.53973c-4.85419-3.05635-10.18832-5.33356-16.00089-6.83178-5.75311-1.55813-11.50621-2.33721-17.25936-2.33721-8.33101,0-15.91098,1.28846-22.74282,3.86538-6.83184,2.57696-12.7053,6.29242-17.61891,11.14662-4.85423,4.8542-8.6007,10.69722-11.23657,17.52905-2.63733,6.83183-3.95531,14.50271-3.95531,23.0125,0,11.68603,2.42712,21.72413,7.2813,30.11416,4.91365,8.32998,11.77594,14.71236,20.58539,19.14696,8.86892,4.43475,19.23702,6.65206,31.10286,6.65206,6.65202,0,12.4646-.65912,17.43913-1.9775,4.97308-1.31851,8.74857-2.81668,11.32644-4.49477v-38.47401h-31.28259v-9.7084h41.35061v53.39618c-2.81711,2.27733-6.5926,4.25496-11.32648,5.93291-4.67441,1.61806-9.5286,2.84669-14.5626,3.68559-5.03396.89892-9.40971,1.34839-13.12432,1.34839Z"/><path class="cls-1" d="m260.83783,576.54323v-125.84953h44.04736c8.02947,0,14.95118,1.49822,20.76521,4.49464,5.872,2.99641,10.36659,7.22135,13.48387,12.67478,3.17524,5.39356,4.76432,11.71605,4.76432,18.96733,0,6.3525-1.49917,11.98572-4.49468,16.8998-2.93746,4.8542-7.16241,8.80947-12.67486,11.86582-5.45439,2.99647-11.95567,4.8542-19.50666,5.57334l42.06971,55.37382h-13.30405l-41.53043-55.19403h-23.19224v55.19403h-10.42756Zm10.42756-64.90243h30.5635c10.00704,0,17.7682-2.2173,23.28215-6.65205,5.57333-4.49463,8.36-10.5473,8.36-18.1583,0-7.91054-2.39809-14.29292-7.19144-19.14712-4.79476-4.8542-12.2254-7.28124-22.29332-7.28124h-32.72088v51.2387Z"/><path class="cls-1" d="m442.04405,579.24c-9.22847,0-17.82775-1.64794-25.79917-4.9441-7.91054-3.35589-14.83224-8.00043-20.76512-13.93335-5.87208-5.9329-10.45659-12.8845-13.7536-20.85507-3.29559-7.97042-4.94414-16.60011-4.94414-25.88906,0-9.34883,1.64855-18.00838,4.94414-25.97895,3.29701-7.97043,7.88151-14.92217,13.7536-20.85508,5.93288-5.93285,12.85459-10.54733,20.76512-13.8434,7.97142-3.29606,16.5707-4.94409,25.79917-4.94409,9.16909,0,17.70882,1.678,25.61935,5.03398,7.91054,3.35599,14.83233,8.03041,20.76521,14.02318,5.93288,5.99294,10.54791,12.97454,13.84342,20.94497,3.35648,7.91054,5.03405,16.45034,5.03405,25.61938,0,9.28895-1.67757,17.91863-5.03405,25.88906-3.2955,7.97057-7.91054,14.92217-13.84342,20.85507-5.93288,5.93291-12.85468,10.57746-20.76521,13.93335-7.91054,3.29616-16.45026,4.9441-25.61935,4.9441Zm0-10.06797c7.55099,0,14.62349-1.31838,21.21467-3.95514,6.5926-2.63689,12.37619-6.38252,17.34927-11.23671,4.97449-4.91407,8.87034-10.7871,11.68603-17.61894,2.81711-6.83184,4.22495-14.41268,4.22495-22.74282,0-11.14668-2.45614-20.88494-7.37126-29.21508-4.85414-8.33-11.4163-14.80226-19.68639-19.41679-8.20929-4.61442-17.34927-6.92167-27.41728-6.92167-7.55099,0-14.62207,1.31843-21.21467,3.95521-6.5911,2.6369-12.37469,6.41238-17.34927,11.32646-4.97308,4.8542-8.86883,10.69722-11.68603,17.52905-2.8156,6.77195-4.22495,14.35295-4.22495,22.74282,0,11.14668,2.42712,20.88509,7.28135,29.21508,4.91511,8.33014,11.47727,14.8024,19.68648,19.41679,8.27009,4.61453,17.43918,6.92173,27.5071,6.92173Z"/><path class="cls-1" d="m585.06418,579.24c-10.66826,0-19.53719-2.21731-26.60818-6.65191-7.07259-4.49463-12.37619-10.45755-15.91098-17.88876-3.53629-7.43107-5.30369-15.61129-5.30369-24.54067v-79.46497h10.42756v78.02669c0,13.54391,3.38541,23.67175,10.15783,30.38369,6.8318,6.71207,15.91098,10.06797,27.23746,10.06797s20.37513-3.3559,27.14755-10.06797c6.8318-6.71193,10.24774-16.83978,10.24774-30.38369v-78.02669h10.42756v79.46497c0,8.92937-1.7689,17.1096-5.30369,24.54067-3.53629,7.43121-8.8399,13.39413-15.91098,17.88876-7.0725,4.4346-15.94142,6.65191-26.60818,6.65191Z"/><path class="cls-1" d="m670.69369,576.54323v-125.84953h40.63142c8.50937,0,15.97045,1.43828,22.38323,4.31484,6.47225,2.87656,11.5063,7.01156,15.10197,12.40512,3.65514,5.33367,5.48342,11.74606,5.48342,19.23701,0,7.73076-1.67749,14.23304-5.03396,19.50669-3.35648,5.2738-8.23964,9.28895-14.65251,12.0456-6.41278,2.69678-14.2335,4.04517-23.46197,4.04517h-30.02413v54.29511h-10.42747Zm10.42747-64.0035h31.28268c10.00846,0,17.73926-2.15742,23.19224-6.47227,5.51386-4.37472,8.27009-10.72708,8.27009-19.05722,0-8.09033-2.78667-14.53258-8.36-19.3269-5.57333-4.8542-13.21423-7.28124-22.9226-7.28124h-31.46241v52.13763Z"/></g></g></g></svg>